<svg width="57" height="29" viewBox="0 0 57 29" fill="none" xmlns="http://www.w3.org/2000/svg">
<path d="M45.9798 12.0466C45.3031 10.1133 44.5782 8.17991 43.974 6.19826C43.684 5.3041 43.4665 4.33753 43.4665 3.39504C43.4665 2.11422 44.6507 0.954153 45.9073 0.784988C46.8015 0.664155 48.2031 1.36503 48.1548 2.16252C47.9856 5.30417 49.9914 7.57584 51.1514 10.1617C52.1423 12.3608 53.4956 14.3907 54.4864 16.5898C55.2114 18.1848 55.888 19.8765 56.1539 21.5923C56.7822 25.6765 53.8581 28.6973 49.8706 27.9723C44.3365 26.9573 38.8507 25.6765 33.6065 23.5015C32.5916 23.0665 31.5766 22.5106 30.7549 21.7856C29.4982 20.674 30.1991 18.2332 31.8666 17.9916C33.2682 17.7982 34.7424 17.9432 36.1923 18.0398C38.4157 18.1848 40.639 18.4507 43.0557 18.6682C43.0315 17.919 43.1765 17.3632 42.959 17.0974C39.1165 12.6749 34.6941 8.95328 29.3533 6.4883C24.8825 4.40998 20.2183 3.51578 15.2883 4.8691C8.35257 6.77825 3.76095 12.2399 3.27762 19.4416C3.22929 20.239 3.27762 21.0123 3.27762 21.5923C2.2143 22.559 1.46515 22.1481 1.05432 21.4473C0.135995 19.8765 -0.105658 18.1608 0.160173 16.3241C1.48933 7.76917 8.42509 1.21996 17.125 0.277469C22.2 -0.254193 27.0575 0.519157 31.6974 2.71831C35.5157 4.53079 38.9232 6.9233 42.1373 9.62994C43.249 10.5483 44.3123 11.515 45.3998 12.4575C45.569 12.3366 45.7623 12.1916 45.9798 12.0466Z" fill="#3850F3"/>
</svg>
