<svg width="59" height="59" viewBox="0 0 59 59" fill="none" xmlns="http://www.w3.org/2000/svg">
<circle cx="29.5" cy="29.5" r="28.5" stroke="#DA706A" stroke-width="2"/>
<path fill-rule="evenodd" clip-rule="evenodd" d="M38.5057 33.2789L30.414 41.1973C30.1612 41.4446 29.8304 41.5682 29.4996 41.5682C29.1689 41.5682 28.8381 41.4446 28.5853 41.1973L20.4936 33.2789C19.9874 32.7835 19.9864 31.9794 20.4913 31.4824C20.9962 30.9857 21.8158 30.9847 22.3223 31.4801L28.205 37.2367V18.7022C28.205 18.0006 28.7847 17.4318 29.4996 17.4318C30.2146 17.4318 30.7943 18.0006 30.7943 18.7022V37.2367L36.6773 31.4801C37.1832 30.9847 38.003 30.9853 38.508 31.4824C39.0129 31.9794 39.0119 32.7835 38.5057 33.2789Z" fill="#DA706A"/>
</svg>
