<svg width="58" height="52" viewBox="0 0 58 52" fill="none" xmlns="http://www.w3.org/2000/svg">
<g >
<path d="M10.1577 15.1063L9.47306 16.1417L7.36834 15.6956L5.18986 18.99L6.50618 20.6284L5.82151 21.6638L0 14.2871L0.72616 13.1889L10.1577 15.1063ZM1.56897 14.4801L4.46329 18.0778L6.19916 15.4527L1.56897 14.4801Z" fill="#374FF2"/>
<path d="M9.54401 7.68788L10.2699 8.46069L8.99521 9.56396L11.3371 12.0572C11.5502 12.2841 11.7476 12.4079 11.9292 12.4286C12.1115 12.4377 12.3013 12.3623 12.4988 12.2026C12.6905 12.0367 12.9211 11.8259 13.1907 11.5703L13.8648 12.2879C13.2164 13.0159 12.625 13.4221 12.0904 13.5067C11.5623 13.5857 11.0333 13.3431 10.5032 12.7789L8.16139 10.2856L7.21257 11.1069L6.48668 10.3341L7.4355 9.51284L6.45037 8.46403L7.05951 7.50314L8.26932 8.79115L9.54401 7.68788Z" fill="#374FF2"/>
<path d="M15.5893 4.10414L16.1219 5.01044L14.627 5.81992L16.3453 8.74382C16.5017 9.00995 16.6661 9.17216 16.8387 9.23044C17.0145 9.27747 17.2169 9.24372 17.4459 9.12919C17.6707 9.00746 17.9437 8.85014 18.265 8.65722L18.7595 9.49879C17.9612 10.0733 17.2916 10.3458 16.7508 10.3163C16.2174 10.2827 15.7563 9.93507 15.3674 9.27332L13.6492 6.34942L12.5365 6.95197L12.0039 6.04567L13.1166 5.44312L12.3938 4.21314L13.2068 3.40311L14.0944 4.91362L15.5893 4.10414Z" fill="#374FF2"/>
<path d="M26.0054 4.71659L20.7756 6.0349C21.028 6.53481 21.3954 6.88619 21.8779 7.08903C22.3581 7.28389 22.8978 7.30581 23.4969 7.15478C24.3207 6.94713 24.8401 6.50456 25.055 5.82707L26.1163 6.09746C25.7475 7.15528 24.9556 7.8373 23.7407 8.14355C22.7589 8.39106 21.8709 8.29898 21.0768 7.86732C20.295 7.41548 19.7806 6.73827 19.5337 5.83567C19.2846 4.92509 19.3829 4.0977 19.8286 3.3535C20.2722 2.60131 20.9766 2.10355 21.9418 1.86024C22.8571 1.62951 23.6871 1.75329 24.4316 2.23159C25.1802 2.69181 25.6746 3.36124 25.915 4.23988C25.9565 4.39164 25.9866 4.55054 26.0054 4.71659ZM22.2106 2.84271C21.6364 2.98744 21.1964 3.26485 20.8905 3.67495C20.593 4.08296 20.4717 4.56608 20.5265 5.12432L24.6953 4.07344C24.453 3.54537 24.1073 3.17572 23.6582 2.96449C23.209 2.75325 22.7265 2.71266 22.2106 2.84271Z" fill="#374FF2"/>
<path d="M31.5861 1.07466C32.3427 1.10132 32.94 1.35375 33.378 1.83196C33.8163 2.30192 34.0204 2.92891 33.9904 3.71293L33.8451 7.51336L32.7232 7.47383L32.8661 3.7353C32.8851 3.24013 32.758 2.84725 32.4851 2.55666C32.2121 2.26606 31.8263 2.11198 31.3276 2.09442C30.7516 2.07412 30.2893 2.23138 29.9408 2.56618C29.5925 2.89274 29.4055 3.39438 29.3796 4.07111L29.2542 7.35161L28.1322 7.31208L28.3689 1.12246L29.4908 1.16199L29.4567 2.05329C29.9306 1.36755 30.6404 1.04134 31.5861 1.07466Z" fill="#374FF2"/>
<path d="M40.9733 3.1385L40.6597 4.13456L39.0168 3.65793L38.0051 6.87142C37.913 7.16391 37.9047 7.39012 37.9802 7.55006C38.0664 7.70447 38.2318 7.82147 38.4763 7.90105C38.7234 7.97272 39.0306 8.05321 39.3979 8.14252L39.1067 9.06744C38.1223 8.91127 37.4542 8.63548 37.1024 8.24008C36.7588 7.84707 36.7014 7.28692 36.9304 6.55964L37.9421 3.34615L36.7192 2.99137L37.0328 1.99531L38.2557 2.35009L38.6813 0.998291L39.8531 1.00176L39.3304 2.66187L40.9733 3.1385Z" fill="#374FF2"/>
<path d="M45.1768 3.82069C44.9864 3.72457 44.8606 3.58171 44.7992 3.3921C44.7379 3.20249 44.7553 3.01998 44.8514 2.84456C44.9475 2.66915 45.0943 2.552 45.2919 2.49311C45.4934 2.42691 45.6893 2.44187 45.8797 2.53799C46.0624 2.63026 46.1825 2.77486 46.2398 2.97178C46.3012 3.16139 46.2838 3.3439 46.1876 3.51931C46.0915 3.69472 45.9447 3.81188 45.7472 3.87077C45.5496 3.92966 45.3595 3.91296 45.1768 3.82069ZM42.1173 10.548L41.1236 10.0462L44.1275 4.5646L45.1212 5.06633L42.1173 10.548Z" fill="#374FF2"/>
<path d="M49.2261 14.7956C48.3035 14.8545 47.4829 14.582 46.7644 13.9782C46.0459 13.3744 45.656 12.6297 45.5947 11.744C45.5334 10.8584 45.8172 10.0707 46.4462 9.38095C47.0752 8.69121 47.851 8.31691 48.7736 8.25807C49.6963 8.19922 50.5168 8.47169 51.2354 9.07548C51.9539 9.67928 52.3438 10.424 52.4051 11.3097C52.4672 12.207 52.1866 12.9974 51.5633 13.6809C50.94 14.3644 50.1609 14.736 49.2261 14.7956ZM47.4869 13.186C47.9724 13.5939 48.5247 13.7782 49.1438 13.7387C49.763 13.6992 50.2879 13.4433 50.7185 12.9711C51.1492 12.4988 51.344 11.9655 51.3028 11.3712C51.2617 10.7769 50.9984 10.2757 50.5129 9.86775C50.0339 9.46522 49.4848 9.2837 48.8656 9.32319C48.2465 9.36268 47.7216 9.61855 47.291 10.0908C46.8603 10.5631 46.6655 11.0963 46.7067 11.6907C46.7478 12.285 47.0079 12.7834 47.4869 13.186Z" fill="#374FF2"/>
<path d="M57.5853 16.6241C57.9816 17.2433 58.0939 17.8604 57.9221 18.4755C57.7576 19.0862 57.3272 19.5969 56.6308 20.0075L53.2552 21.9983L52.6675 21.08L55.9881 19.1217C56.4279 18.8623 56.6981 18.543 56.7987 18.1639C56.8994 17.7847 56.8191 17.391 56.5579 16.9829C56.2561 16.5115 55.8635 16.2293 55.38 16.1364C54.9038 16.0393 54.3652 16.1679 53.7641 16.5224L50.8504 18.2408L50.2627 17.3225L55.7603 14.0803L56.348 14.9985L55.5564 15.4654C56.4136 15.4639 57.0899 15.8501 57.5853 16.6241Z" fill="#374FF2"/>
</g>
</svg>
