<svg width="10" height="14" viewBox="0 0 10 14" fill="none" xmlns="http://www.w3.org/2000/svg">
<circle cx="5" cy="7" r="4.5" stroke="#fff"/>
<path d="M5.08301 9.29102C5.31934 9.29102 5.53776 9.24268 5.73828 9.146C5.9388 9.04932 6.10352 8.91683 6.23242 8.74854C6.36133 8.57666 6.43473 8.38151 6.45264 8.16309H7.39795C7.38005 8.50684 7.26367 8.82731 7.04883 9.12451C6.83757 9.41813 6.56006 9.65625 6.21631 9.83887C5.87256 10.0179 5.49479 10.1074 5.08301 10.1074C4.64616 10.1074 4.26481 10.0304 3.93896 9.87646C3.6167 9.72249 3.34814 9.51123 3.1333 9.24268C2.92204 8.97412 2.7627 8.66618 2.65527 8.31885C2.55143 7.96794 2.49951 7.59733 2.49951 7.20703V6.98145C2.49951 6.59115 2.55143 6.22233 2.65527 5.875C2.7627 5.52409 2.92204 5.21436 3.1333 4.9458C3.34814 4.67725 3.6167 4.46598 3.93896 4.31201C4.26481 4.15804 4.64616 4.08105 5.08301 4.08105C5.53776 4.08105 5.93522 4.17415 6.27539 4.36035C6.61556 4.54297 6.88232 4.79362 7.07568 5.1123C7.27262 5.42741 7.38005 5.78548 7.39795 6.18652H6.45264C6.43473 5.94661 6.3667 5.72998 6.24854 5.53662C6.13395 5.34326 5.9764 5.18929 5.77588 5.07471C5.57894 4.95654 5.34798 4.89746 5.08301 4.89746C4.77865 4.89746 4.52262 4.95833 4.31494 5.08008C4.11084 5.19824 3.94792 5.35938 3.82617 5.56348C3.70801 5.764 3.62207 5.98779 3.56836 6.23486C3.51823 6.47835 3.49316 6.72721 3.49316 6.98145V7.20703C3.49316 7.46126 3.51823 7.71191 3.56836 7.95898C3.61849 8.20605 3.70264 8.42985 3.8208 8.63037C3.94255 8.83089 4.10547 8.99202 4.30957 9.11377C4.51725 9.23193 4.77507 9.29102 5.08301 9.29102Z" fill="#fff"/>
</svg>
