<svg width="28" height="28" viewBox="0 0 28 28" fill="none" xmlns="http://www.w3.org/2000/svg">
<path d="M13.9993 15.1666C13.6899 15.1666 13.3932 15.2895 13.1744 15.5083C12.9556 15.7271 12.8327 16.0238 12.8327 16.3333V19.8333C12.8327 20.1427 12.9556 20.4394 13.1744 20.6582C13.3932 20.877 13.6899 20.9999 13.9993 20.9999C14.3088 20.9999 14.6055 20.877 14.8243 20.6582C15.0431 20.4394 15.166 20.1427 15.166 19.8333V16.3333C15.166 16.0238 15.0431 15.7271 14.8243 15.5083C14.6055 15.2895 14.3088 15.1666 13.9993 15.1666ZM19.8327 10.4999V8.16659C19.8327 6.61949 19.2181 5.13576 18.1241 4.0418C17.0302 2.94783 15.5464 2.33325 13.9993 2.33325C12.4523 2.33325 10.9685 2.94783 9.87456 4.0418C8.7806 5.13576 8.16602 6.61949 8.16602 8.16659V10.4999C7.23776 10.4999 6.34752 10.8687 5.69114 11.525C5.03476 12.1814 4.66602 13.0717 4.66602 13.9999V22.1666C4.66602 23.0948 5.03476 23.9851 5.69114 24.6415C6.34752 25.2978 7.23776 25.6666 8.16602 25.6666H19.8327C20.7609 25.6666 21.6512 25.2978 22.3076 24.6415C22.9639 23.9851 23.3327 23.0948 23.3327 22.1666V13.9999C23.3327 13.0717 22.9639 12.1814 22.3076 11.525C21.6512 10.8687 20.7609 10.4999 19.8327 10.4999ZM10.4993 8.16659C10.4993 7.23833 10.8681 6.34809 11.5245 5.69171C12.1809 5.03533 13.0711 4.66659 13.9993 4.66659C14.9276 4.66659 15.8178 5.03533 16.4742 5.69171C17.1306 6.34809 17.4993 7.23833 17.4993 8.16659V10.4999H10.4993V8.16659ZM20.9993 22.1666C20.9993 22.476 20.8764 22.7728 20.6576 22.9915C20.4388 23.2103 20.1421 23.3333 19.8327 23.3333H8.16602C7.8566 23.3333 7.55985 23.2103 7.34106 22.9915C7.12227 22.7728 6.99935 22.476 6.99935 22.1666V13.9999C6.99935 13.6905 7.12227 13.3938 7.34106 13.175C7.55985 12.9562 7.8566 12.8333 8.16602 12.8333H19.8327C20.1421 12.8333 20.4388 12.9562 20.6576 13.175C20.8764 13.3938 20.9993 13.6905 20.9993 13.9999V22.1666Z" fill="white"/>
</svg>
