<svg width="138" height="64" viewBox="0 0 138 64" fill="none" xmlns="http://www.w3.org/2000/svg">
<path d="M54.3743 24.8002C54.9358 24.3354 55.467 23.8353 55.9647 23.3028C56.9455 22.3399 57.936 21.385 58.9362 20.438C59.6731 19.7384 60.4339 19.0599 61.1734 18.3629C61.3605 18.1707 61.5366 17.968 61.7009 17.7561C61.995 17.4516 62.3735 17.242 62.7878 17.1545C63.986 16.8132 65.1574 16.3836 66.2921 15.8691C67.1191 15.4875 67.9382 15.09 68.7387 14.6527C70.0197 13.9779 71.1783 13.0928 72.1661 12.0344C72.7838 11.3586 73.9289 9.30735 73.9713 9.25435C74.0428 9.13844 74.1562 9.0545 74.288 9.01996C74.4198 8.98542 74.5598 9.00292 74.679 9.06884C75.0099 9.19974 75.2966 9.42196 75.506 9.70959C75.7153 9.99722 75.8385 10.3384 75.8613 10.6934C75.9337 11.3117 75.9095 11.9376 75.7897 12.5485C75.6637 13.2454 75.4582 13.9257 75.1774 14.5759C74.7602 15.5739 74.1667 16.4886 73.4252 17.2764C73.0974 17.6066 72.7307 17.8958 72.3331 18.1377C71.2967 18.8055 70.2311 19.431 69.1946 20.0988C68.9514 20.2885 68.7316 20.5065 68.5399 20.7481C68.3808 20.9177 68.2351 21.1032 68.0628 21.3073C71.0051 21.9486 73.9554 22.1765 76.9083 22.3488C76.9096 22.3691 76.9096 22.3894 76.9083 22.4097C76.789 22.4097 76.6697 22.4097 76.5505 22.4097C75.7552 22.4601 74.9812 22.5104 74.1966 22.5661C73.4995 22.6138 72.8023 22.6721 72.1025 22.7225C71.7314 22.7463 71.3576 22.7437 70.9892 22.7834C70.1648 22.8656 69.3987 23.0855 68.911 23.8435C68.7424 24.0869 68.6291 24.3641 68.5789 24.6559C68.5287 24.9477 68.5428 25.2469 68.6203 25.5326C68.6978 25.8183 68.8368 26.0837 69.0276 26.3101C69.2184 26.5365 69.4563 26.7185 69.7248 26.8434C69.8069 26.8805 69.8838 26.9283 70.0084 26.9945C69.2423 27.3311 68.6009 27.7631 68.418 28.5846C68.3269 28.9616 68.3223 29.3544 68.4045 29.7334C68.4866 30.1125 68.6535 30.4681 68.8924 30.7736C68.6035 30.8796 68.3252 30.9618 68.0654 31.0837C67.6419 31.2853 67.2958 31.6195 67.0796 32.0356C66.8634 32.4517 66.7888 32.927 66.8673 33.3893C66.9023 33.7327 67.0054 34.0656 67.1707 34.3687C67.3359 34.6717 67.5598 34.9388 67.8295 35.1543L67.9117 35.2259C67.7583 35.4293 67.6201 35.6436 67.4981 35.8672C67.316 36.237 67.2251 36.645 67.2331 37.0572H67.9673C67.9673 37.0201 67.9673 36.9856 67.9673 36.9511C67.9525 36.6001 68.0592 36.2547 68.2695 35.9732C68.3631 35.8522 68.4885 35.7595 68.6318 35.7057C68.7751 35.6519 68.9305 35.639 69.0806 35.6685C69.6956 35.7559 70.3106 35.8434 70.9229 35.9335C71.4531 36.0103 71.962 36.1031 72.4816 36.18C72.7758 36.225 73.0727 36.2409 73.3669 36.2913C73.9766 36.3946 74.5836 36.5139 75.1933 36.6278L76.7678 36.9167L77.4915 37.0545H80.8871C82.7807 37.051 84.5957 36.2974 85.9346 34.9587C87.2736 33.6201 88.0274 31.8055 88.0309 29.9123V7.15543C88.0309 5.25952 87.2783 3.44112 85.9384 2.09952C84.5985 0.757921 82.7808 0.00280874 80.8844 0L77.7433 0C77.3802 0.853351 76.2297 2.04592 74.8036 3.3074C72.7519 5.11745 70.907 6.38423 70.2708 5.69254L69.9395 5.31887C69.3139 4.61127 70.6711 2.78267 72.7307 0.962007C73.123 0.612186 73.526 0.288867 73.8971 0H58.1118C56.2164 0.00421108 54.4001 0.759943 53.0613 2.10139C51.7226 3.44284 50.9707 5.26044 50.9707 7.15543V26.642L51.0343 26.6208C52.2318 26.1829 53.3574 25.5693 54.3743 24.8002ZM81.1151 34.2427C81.1363 35.3266 80.41 35.8328 79.5856 36.2754C79.3323 36.3894 79.0648 36.4687 78.7904 36.5112C78.6439 36.5341 78.4943 36.5278 78.3503 36.4927C77.6399 36.3575 76.9295 36.2065 76.2165 36.0686C75.7181 35.9697 75.2189 35.8814 74.7188 35.8036C74.0349 35.6844 73.3537 35.5651 72.6698 35.4591C71.9859 35.3531 71.2437 35.2603 70.5306 35.1623C69.9846 35.0854 69.4279 35.0483 68.8951 34.9185C68.6159 34.8475 68.3595 34.7066 68.1499 34.509C67.9402 34.3115 67.7844 34.0639 67.697 33.7895C67.5467 33.413 67.5253 32.9975 67.636 32.6075C67.7127 32.354 67.8572 32.1263 68.0538 31.9488C68.2505 31.7713 68.4919 31.6509 68.752 31.6005C69.272 31.4688 69.8197 31.4965 70.3238 31.68C70.8036 31.8284 71.294 31.945 71.7791 32.0722C72.4285 32.2498 73.07 32.4697 73.7301 32.6022C74.2147 32.6811 74.7049 32.7201 75.1959 32.7188C75.7711 32.7427 76.349 32.7188 76.9269 32.7533C78.1542 32.793 79.3841 32.8487 80.6114 32.8885C80.6936 32.8852 80.7745 32.9095 80.8413 32.9575C80.9081 33.0055 80.9569 33.0745 80.9799 33.1535C81.1284 33.4961 81.1754 33.8742 81.1151 34.2427ZM82.6419 30.2118C82.6419 31.1632 82.011 31.6773 81.1999 32.0378C80.8582 32.1493 80.4955 32.181 80.1396 32.1305C78.5491 32.0828 76.9401 32.0139 75.3391 31.9582C75.1111 31.9582 74.8805 31.9582 74.6499 31.9582C74.0163 31.9768 73.4332 31.7409 72.8341 31.5952C72.304 31.4627 71.7606 31.301 71.2225 31.1553C70.8885 31.0651 70.5465 30.9909 70.2205 30.8902C70.0123 30.8153 69.8217 30.6986 69.6603 30.5473C69.4989 30.396 69.3702 30.2133 69.2821 30.0104C69.1621 29.7921 69.0909 29.5504 69.0735 29.3019C69.0562 29.0535 69.0929 28.8042 69.1814 28.5713C69.3605 28.2013 69.6773 27.9159 70.0641 27.7763C70.8107 27.4339 71.6501 27.35 72.4498 27.5378C72.8606 27.6226 73.2821 27.665 73.7009 27.7286C74.4779 27.805 75.2597 27.8192 76.0389 27.771C76.5982 27.771 77.1548 27.771 77.7141 27.7524C78.2735 27.7339 78.8301 27.7286 79.3868 27.718L80.0574 27.7021C80.4418 27.7021 80.8261 27.7021 81.2105 27.6809C81.3584 27.6686 81.5051 27.7153 81.6187 27.8108C81.9791 28.0913 82.2621 28.4588 82.4411 28.8789C82.6201 29.299 82.6892 29.7577 82.6419 30.2118ZM78.8672 22.9981C79.2012 22.9769 79.5352 22.9636 79.8666 22.9159C80.1097 22.9026 80.3495 22.9769 80.5425 23.1253C81.0608 23.3905 81.4793 23.8163 81.7353 24.339C81.9672 24.826 82.0069 25.3824 81.8467 25.8973C81.7565 26.1915 81.6399 26.4777 81.5365 26.7692C81.5189 26.8284 81.4813 26.8796 81.43 26.9139C81.3787 26.9483 81.317 26.9637 81.2556 26.9574C80.6353 26.9574 80.015 26.9574 79.4 26.976C78.4882 26.976 77.5763 27.0025 76.6645 27.021L74.1754 27.0767C73.3616 26.9389 72.4975 26.8116 71.6386 26.6447C71.2 26.5631 70.7678 26.4506 70.3451 26.3081C70.1444 26.2601 69.9567 26.1685 69.7955 26.0398C69.6342 25.9111 69.5033 25.7484 69.412 25.5634C69.2626 25.2277 69.2523 24.8465 69.3835 24.5033C69.5147 24.16 69.7766 23.8827 70.1118 23.7322C70.5263 23.5654 70.9692 23.4808 71.416 23.483L72.9004 23.3876L74.6446 23.2763C75.4239 23.2233 76.2006 23.165 76.9799 23.1147C77.6055 23.0723 78.2363 23.0405 78.8672 22.9981Z" fill="white"/>
<path d="M70.3804 7.65695C70.5792 7.88221 72.0928 6.8619 73.7601 5.39371C74.5023 4.75165 75.1993 4.0592 75.8463 3.32129L74.4228 3.32129C73.9642 3.65521 73.4606 4.05538 72.949 4.50591C71.2923 5.97145 70.1816 7.43433 70.3804 7.65695Z" fill="white"/>
<path d="M7.18756 56.6641C7.19482 57.0426 7.16374 57.4208 7.09478 57.7931C7.0711 57.9517 6.99995 58.0996 6.89067 58.2171C6.77077 58.2929 6.62894 58.3265 6.48776 58.3125C6.02122 58.3125 5.92845 58.1508 5.88869 58.0793C5.7747 57.8779 5.63687 57.4697 5.63687 56.6641V55.3125H0.998047V56.998C1.00483 57.7941 1.13082 58.5846 1.3718 59.3434C1.67319 60.2687 2.24806 61.0809 3.02057 61.6729C3.86351 62.354 5.0378 62.6985 6.50896 62.6985C8.71174 62.6985 10.1856 61.9856 10.8933 60.5784C11.5421 59.2053 11.8616 57.6999 11.8264 56.1818V45.9893H7.18756V56.6641Z" fill="white"/>
<path d="M25.7447 57.7454C25.8346 57.1435 25.8807 56.5359 25.8825 55.9273V45.9893H21.2437V55.3602C21.2581 55.9744 21.1894 56.5877 21.0396 57.1835C20.9621 57.5188 20.7757 57.8189 20.5094 58.0369C20.1787 58.2467 19.7895 58.3451 19.3988 58.3178C19.0056 58.3458 18.6139 58.2454 18.2828 58.0316C18.0166 57.8091 17.8304 57.5057 17.7527 57.1676C17.6059 56.5767 17.5382 55.9689 17.5512 55.3602V45.9893H12.8965V55.9273C12.8965 60.3584 15.1417 62.6985 19.3882 62.6985C20.8328 62.6985 22.0389 62.4335 22.9481 61.9034C23.8013 61.44 24.5074 60.7469 24.9866 59.9026C25.363 59.2331 25.6195 58.5031 25.7447 57.7454Z" fill="white"/>
<path d="M37.7557 61.0362C38.7553 59.9427 39.293 58.5049 39.256 57.0239C39.2958 56.0442 39.039 55.0753 38.5191 54.2439C38.0129 53.5149 37.3121 52.9429 36.4966 52.5928C35.5425 52.1885 34.5494 51.883 33.533 51.6812C32.931 51.5638 32.3441 51.3788 31.7835 51.1299C31.6483 51.0637 31.5184 50.9683 31.5184 50.5999C31.5169 50.5165 31.535 50.4339 31.5714 50.3589C31.6078 50.2838 31.6614 50.2184 31.7278 50.1679C31.7862 50.1149 32.038 49.9453 32.8041 49.9453C34.2434 49.9453 34.2938 50.5389 34.3203 50.857L34.3813 51.5487H38.8001L38.7868 50.7775C38.7868 50.6397 38.7868 50.5124 38.763 50.3693H42.7152V62.2765H47.354V50.3693H51.362V45.9886H38.7179V49.9109C38.6202 49.2964 38.4185 48.7032 38.1215 48.1565C37.661 47.333 36.965 46.6658 36.1228 46.2404C35.1539 45.7625 34.0828 45.5287 33.0029 45.5593C30.8584 45.5593 29.2733 46.0549 28.2951 47.0301C27.8124 47.5069 27.4322 48.0772 27.1779 48.7061C26.9235 49.335 26.8004 50.0092 26.816 50.6874C26.7933 51.4875 26.9377 52.2836 27.2401 53.0248C27.501 53.6462 27.9128 54.1927 28.4383 54.6149C28.8859 54.9669 29.3859 55.2468 29.92 55.4444C30.3866 55.614 30.9803 55.7916 31.7756 55.9877C32.4983 56.1643 32.9755 56.2836 33.207 56.3454C33.4469 56.4124 33.6803 56.5011 33.9041 56.6105C34.1048 56.7048 34.2809 56.8445 34.4184 57.0186C34.5256 57.1738 34.5779 57.3603 34.5668 57.5486C34.5668 57.7765 34.5668 58.3119 32.9578 58.3119C32.4276 58.3119 31.7438 58.2377 31.4707 57.8746C31.2098 57.5478 31.0668 57.1425 31.0652 56.7244V55.9665H26.3574V56.735C26.3773 58.1823 26.8573 59.5856 27.7279 60.7421C28.6742 62.0406 30.4104 62.6979 32.8889 62.6979C35.1076 62.6979 36.7404 62.1387 37.7557 61.0362Z" fill="white"/>
<path d="M68.1338 54.1063C68.1308 52.8789 67.9659 51.6573 67.6434 50.473C67.2907 49.1768 66.5686 48.0112 65.5652 47.1179C64.5049 46.1479 63.0152 45.6523 61.1544 45.6523H54.8906V62.6134H60.8813C64.1895 62.6054 68.1338 61.1319 68.1338 54.1063ZM62.6573 57.2176C62.2412 57.806 61.5652 58.0922 60.5871 58.0922H59.4261V50.1682H60.77C61.4804 50.1682 63.3624 50.1682 63.3624 54.1753C63.3624 55.5295 63.1239 56.5551 62.6573 57.2176Z" fill="white"/>
<path d="M81.0789 60.2623C81.6622 59.3979 82.0851 58.4356 82.3274 57.4214C82.8363 55.2538 82.8363 52.9979 82.3274 50.8304C82.0862 49.8158 81.6632 48.8533 81.0789 47.9894C80.4913 47.1312 79.701 46.4312 78.778 45.9515C77.7565 45.4428 76.6268 45.1891 75.4858 45.2121C74.2363 45.1743 73.0006 45.4825 71.9152 46.1025C70.9756 46.6643 70.1954 47.4571 69.6489 48.4055C69.1375 49.2929 68.7689 50.2552 68.5567 51.2571C68.1556 53.1468 68.1556 55.0997 68.5567 56.9894C68.7689 57.9925 69.1383 58.9559 69.6515 59.8436C70.2008 60.794 70.9836 61.5885 71.9258 62.1519C73.0068 62.7739 74.2391 63.0839 75.4858 63.0476C76.631 63.072 77.7648 62.8164 78.7886 62.3029C79.7089 61.8223 80.4958 61.1212 81.0789 60.2623ZM77.1452 57.7314C76.9368 57.972 76.6808 58.1668 76.3934 58.3037C76.106 58.4405 75.7934 58.5164 75.4752 58.5265C75.0651 58.5299 74.6625 58.4169 74.3142 58.2005C73.9802 57.9991 73.6859 57.5883 73.4421 56.9814C73.177 56.3109 73.0312 55.3489 73.0312 54.1219C73.0312 52.4815 73.2724 51.3048 73.7496 50.6211C73.9329 50.3328 74.1889 50.0977 74.4917 49.9396C74.7946 49.7814 75.1338 49.7057 75.4752 49.72C75.8891 49.7166 76.2957 49.8285 76.6495 50.0433C76.9835 50.2394 77.2777 50.6476 77.5269 51.2518C77.792 51.9223 77.9378 52.8869 77.9378 54.1219C77.9378 56.4382 77.5083 57.3631 77.1452 57.7314Z" fill="white"/>
<path d="M86.5195 45.6416V62.2342H96.9025V57.7899H91.0152V45.6416H86.5195Z" fill="white"/>
<path d="M109.449 57.6181C109.535 57.0034 109.579 56.3836 109.582 55.763V45.642H105.075V55.1826C105.089 55.8139 105.022 56.4444 104.877 57.0589C104.8 57.4027 104.614 57.7123 104.346 57.9414C104.046 58.1416 103.686 58.235 103.326 58.2064C102.963 58.2326 102.601 58.1335 102.303 57.9255C102.038 57.6914 101.857 57.3781 101.786 57.0324C101.645 56.4243 101.58 55.8013 101.592 55.1773V45.6367H97.0859V55.7656C97.0859 61.4635 100.474 62.656 103.315 62.656C104.707 62.656 105.863 62.3751 106.761 61.8265C107.588 61.3399 108.263 60.6323 108.709 59.7833C109.073 59.107 109.323 58.3755 109.449 57.6181Z" fill="white"/>
<path d="M119.104 56.059C119.041 56.6297 118.838 57.1759 118.513 57.6491C118.351 57.8876 118.041 58.203 117.203 58.203C116.979 58.2112 116.755 58.1749 116.545 58.0962C116.335 58.0175 116.142 57.898 115.979 57.7445C115.582 57.3443 115.297 56.8473 115.152 56.3028C114.945 55.5765 114.844 54.824 114.852 54.0687C114.839 52.9433 115.032 51.8249 115.422 50.7693C115.719 49.9742 116.241 49.6377 117.111 49.6377C117.94 49.6377 118.81 49.8682 118.995 51.5882L119.067 52.2666H123.462L123.43 51.4716C123.394 50.433 123.15 49.4122 122.714 48.469C122.251 47.4818 121.508 46.6525 120.578 46.0838C119.618 45.4796 118.402 45.1748 116.962 45.1748C115.271 45.1748 113.882 45.6359 112.84 46.5502C111.816 47.4537 111.074 48.6333 110.704 49.9477C110.305 51.3256 110.109 52.7538 110.121 54.188C110.089 55.5496 110.282 56.9071 110.693 58.2056C111.015 59.2241 111.576 60.1508 112.329 60.9088C112.968 61.5361 113.744 62.0068 114.595 62.2842C115.402 62.5391 116.243 62.6678 117.089 62.6658C118.68 62.6658 119.984 62.2922 120.946 61.5528C121.833 60.8996 122.519 60.0121 122.929 58.9901C123.274 58.1025 123.496 57.1714 123.586 56.2233L123.658 55.3965H119.181L119.104 56.059Z" fill="white"/>
<path d="M132.115 52.7069L137.854 45.6416H132.173L128.457 50.3536V45.6416H123.961V62.2342H128.457V56.971L129.019 56.2899L132.483 62.2342H137.999L132.115 52.7069Z" fill="white"/>
</svg>
