<svg width="160" height="30" viewBox="0 0 160 30" fill="none" xmlns="http://www.w3.org/2000/svg">
<path d="M5.65828 10.6117C5.66417 10.9654 5.6346 11.3187 5.57 11.6666C5.54323 11.8443 5.46005 12.009 5.33249 12.1369C5.19304 12.2378 5.02099 12.2844 4.84905 12.268C4.38664 12.268 4.2353 12.1119 4.15753 11.9746C4.04193 11.7665 3.90531 11.3753 3.90531 10.6117V9.55471H0V10.9134C0.00529132 11.6197 0.117954 12.3211 0.3342 12.9941C0.600522 13.7976 1.10699 14.5021 1.7866 15.0145C2.52227 15.6054 3.57321 15.9071 4.87007 15.9071C6.81432 15.9071 8.11118 15.2829 8.72704 14.0761C9.31033 12.8574 9.59822 11.5209 9.56779 10.1727V1.11121H5.65828V10.6117Z" fill="white"/>
<path d="M21.6093 13.456C21.9427 12.8692 22.1696 12.229 22.2798 11.5647C22.3618 11.0282 22.4039 10.4864 22.406 9.9438V1.11121H18.4964V9.43403C18.5103 10.0055 18.4445 10.5761 18.301 11.1298C18.2192 11.4695 18.0245 11.7721 17.7482 11.9891C17.4192 12.1991 17.0312 12.2997 16.6405 12.2763C16.245 12.3025 15.8516 12.2002 15.5202 11.985C15.2449 11.763 15.0513 11.4573 14.9695 11.1152C14.8313 10.5656 14.7677 10.0003 14.7803 9.43403V1.11121H10.875V9.9438C10.875 13.8451 12.8697 15.9071 16.6405 15.9071C17.931 15.9071 18.9967 15.6699 19.8122 15.2038C20.564 14.7983 21.1864 14.1929 21.6093 13.456Z" fill="white"/>
<path d="M32.2094 7.07413C31.3474 6.71404 30.451 6.44078 29.5337 6.25849C28.969 6.15155 28.4188 5.97977 27.8942 5.74664C27.7282 5.66549 27.56 5.52816 27.56 5.12243C27.5592 5.02343 27.5811 4.92554 27.624 4.83615C27.667 4.74676 27.7299 4.6682 27.808 4.60641C27.911 4.51694 28.1906 4.36505 28.901 4.36505C30.1958 4.36505 30.4123 4.85818 30.4543 5.3409L30.4964 5.8153H34.2125L34.202 5.28472C34.1948 4.48498 33.9899 3.69915 33.605 2.99594C33.1998 2.28026 32.588 1.70065 31.8479 1.33138C30.9873 0.909336 30.0355 0.702175 29.0755 0.727976C27.1607 0.727976 25.7524 1.16076 24.8885 2.01177C24.4634 2.42754 24.1287 2.92498 23.905 3.47352C23.6812 4.02206 23.5732 4.6101 23.5875 5.20149C23.5678 5.90358 23.6952 6.60209 23.9616 7.25307C24.1918 7.78805 24.553 8.25786 25.0125 8.62009C25.4072 8.92899 25.8483 9.17472 26.3199 9.34834C26.7403 9.49815 27.2952 9.66044 27.9867 9.83314C28.6782 10.0058 29.0923 10.1016 29.3004 10.1577C29.5291 10.2257 29.7514 10.3134 29.9646 10.4199C30.1724 10.5143 30.3542 10.6571 30.4943 10.836C30.615 11.0037 30.675 11.2068 30.6645 11.4124C30.6645 11.6683 30.6645 12.2676 29.0271 12.2676C28.2705 12.2676 27.766 12.1136 27.5348 11.8057C27.2732 11.4819 27.1302 11.08 27.1291 10.6654V10.1452H23.1797V10.6717C23.1983 11.949 23.6258 13.1875 24.4009 14.2089C25.2416 15.3408 26.776 15.913 28.983 15.913C30.9525 15.913 32.4028 15.4261 33.2982 14.4565C34.183 13.4964 34.6589 12.2351 34.6266 10.9359C34.6266 9.9559 34.4164 9.14027 33.9813 8.51606C33.5387 7.88067 32.9248 7.38107 32.2094 7.07413Z" fill="white"/>
<path d="M45.6847 1.11121H34.4648V4.75036H38.1284V15.5243H42.0337V4.75036H45.6847V1.11121Z" fill="white"/>
<path d="M61.0245 8.29594C61.0215 7.20005 60.8724 6.10935 60.581 5.05212C60.2676 3.90964 59.6249 2.88224 58.7313 2.09544C57.7897 1.24859 56.4697 0.813721 54.8134 0.813721H49.2539V15.8239H54.5633C57.5101 15.8239 61.0245 14.5172 61.0245 8.29594ZM53.0646 12.0683V4.57772H54.4624C55.5512 4.57772 56.9973 4.97097 56.9973 8.37084C56.9973 9.63175 56.7703 10.5889 56.3226 11.2172C55.9022 11.7978 55.2464 12.0787 54.2942 12.0787L53.0646 12.0683Z" fill="white"/>
<path d="M74.3433 8.32284C74.3485 7.33209 74.2335 6.34431 74.0007 5.38072C73.7839 4.48175 73.4051 3.62887 72.8825 2.86307C72.3608 2.10459 71.6565 1.48673 70.8331 1.06534C69.9202 0.615165 68.9101 0.392325 67.8905 0.416158C66.6461 0.416158 65.5784 0.678327 64.7145 1.1985C63.8799 1.69237 63.1868 2.38928 62.7009 3.22303C62.2423 4.01104 61.9118 4.86556 61.7214 5.75525C61.3585 7.44251 61.3585 9.18652 61.7214 10.8738C61.9111 11.7646 62.2424 12.62 62.703 13.4081C63.1948 14.2454 63.8953 14.9439 64.7376 15.4368C65.6947 15.9835 66.7858 16.2579 67.8905 16.2295C68.9107 16.2518 69.9209 16.0268 70.8331 15.5741C71.652 15.1514 72.353 14.5354 72.874 13.7805C73.396 13.0143 73.7747 12.1616 73.9923 11.2629C74.228 10.3004 74.3458 9.31324 74.3433 8.32284ZM67.8905 12.4676C67.4852 12.4708 67.0874 12.3604 66.7428 12.1493C66.4065 11.9412 66.1123 11.5479 65.8769 10.9653C65.6204 10.3411 65.4901 9.4485 65.4901 8.31452C65.4901 6.79768 65.7213 5.69907 66.1753 5.05405C66.3588 4.77111 66.6133 4.54012 66.9139 4.38366C67.2145 4.22721 67.551 4.15063 67.8905 4.16143C68.2991 4.15801 68.7007 4.26676 69.0507 4.47562C69.387 4.67328 69.6813 5.06862 69.9188 5.65121C70.1773 6.27543 70.3097 7.17013 70.3097 8.30828C70.3097 10.4576 69.8894 11.3315 69.5362 11.6873C69.0297 12.2138 68.4895 12.4676 67.8905 12.4676Z" fill="white"/>
<path d="M87.3179 11.7956H81.9371V0.803223H78.1621V15.4868H87.3179V11.7956Z" fill="white"/>
<path d="M95.1299 9.27586C95.1437 9.86537 95.0808 10.4542 94.9429 11.0278C94.8837 11.385 94.6877 11.7059 94.3957 11.9237C94.1036 12.1415 93.738 12.2394 93.3749 12.1972C93.0009 12.2245 92.6291 12.1214 92.3239 11.9059C92.0551 11.6718 91.87 11.358 91.7963 11.0112C91.6635 10.4459 91.6021 9.8665 91.6135 9.28626V0.803223H87.8301V9.80436C87.8301 14.823 90.8358 15.8779 93.358 15.8779C94.5982 15.8779 95.6239 15.6324 96.41 15.1518C97.139 14.7266 97.7342 14.1092 98.1293 13.3686C98.4549 12.7674 98.6779 12.1171 98.7893 11.444C98.8672 10.898 98.9072 10.3474 98.9091 9.79603V0.803223H95.1257L95.1299 9.27586Z" fill="white"/>
<path d="M101.688 14.334C102.254 14.883 102.94 15.2959 103.693 15.5408C104.414 15.7662 105.166 15.8799 105.923 15.8779C107.346 15.8779 108.498 15.5512 109.347 14.9062C110.132 14.3325 110.741 13.5537 111.104 12.6569C111.415 11.8677 111.613 11.0391 111.693 10.1955L111.745 9.62951H107.997L107.943 10.0893C107.882 10.6349 107.686 11.1572 107.373 11.6103C107.11 11.9974 106.673 12.1846 106.041 12.1846C105.814 12.1931 105.588 12.1568 105.376 12.0778C105.164 11.9988 104.969 11.8788 104.805 11.7248C104.421 11.3429 104.144 10.868 104.004 10.3474C103.811 9.67475 103.717 8.97823 103.724 8.27914C103.712 7.24099 103.892 6.20939 104.254 5.23506C104.55 4.46312 105.095 4.10316 105.954 4.10316C107.117 4.10316 107.699 4.69408 107.846 6.01949L107.897 6.48349H111.592L111.571 5.9425C111.541 5.02542 111.327 4.12342 110.94 3.2896C110.528 2.42843 109.87 1.70524 109.048 1.2089C108.208 0.680398 107.115 0.411987 105.832 0.411987C104.327 0.411987 103.1 0.815644 102.173 1.61464C101.258 2.41171 100.594 3.45254 100.26 4.61293C99.9018 5.84358 99.7249 7.11906 99.7349 8.39982C99.7091 9.61398 99.8867 10.824 100.26 11.9807C100.544 12.8647 101.033 13.6707 101.688 14.334Z" fill="white"/>
<path d="M116.156 10.8281L116.86 9.98538L120.099 15.4868H124.744L119.46 7.01829L124.559 0.803223H119.801L116.156 5.37661V0.803223H112.381V15.4868H116.156V10.8281Z" fill="white"/>
<path d="M146.947 3.17516C147.094 3.33953 148.208 2.5988 149.446 1.51059C149.994 1.04147 150.51 0.536824 150.991 0L149.94 0C149.601 0.243442 149.227 0.536822 148.851 0.867654C147.621 1.94754 146.8 3.01078 146.947 3.17516Z" fill="white"/>
<path d="M156.005 0H152.387C152.118 0.624212 151.267 1.49811 150.212 2.42194C148.701 3.74527 147.343 4.67535 146.866 4.16141L146.62 3.88676C146.157 3.36866 147.16 2.02869 148.684 0.694956C148.976 0.449432 149.266 0.208071 149.548 0H136.585C135.527 0.00383734 134.514 0.421581 133.766 1.16215C133.018 1.90271 132.596 2.90603 132.592 3.95334V19.5025L132.64 19.4858C133.525 19.1674 134.357 18.7215 135.11 18.1625C135.527 17.8206 135.921 17.453 136.291 17.0618C136.638 16.7247 136.987 16.3918 137.342 16.0589C137.517 15.778 137.693 15.4971 137.863 15.212C137.959 15.0336 138.046 14.8502 138.122 14.6627C138.276 14.3794 138.512 14.1477 138.799 13.9969C139.61 13.5002 140.383 12.9438 141.111 12.3323C141.64 11.8829 142.162 11.421 142.662 10.9383C143.467 10.182 144.139 9.29807 144.65 8.32282C144.964 7.69861 145.382 5.9633 145.401 5.91337C145.429 5.81275 145.495 5.72649 145.585 5.67175C145.675 5.617 145.783 5.59778 145.886 5.61791C146.158 5.64527 146.416 5.74838 146.631 5.91523C146.845 6.08208 147.008 6.30583 147.099 6.56047C147.28 6.9975 147.392 7.45911 147.433 7.92957C147.484 8.46452 147.473 9.00347 147.4 9.53588C147.3 10.3543 147.053 11.1484 146.67 11.8808C146.495 12.1901 146.283 12.4778 146.04 12.7381C145.409 13.4393 144.758 14.1176 144.133 14.8188C144.031 14.946 143.946 15.0859 143.881 15.2349C145.289 15.5345 149.396 16.2524 151.303 16.3627V16.4084C151.215 16.4084 151.124 16.4084 151.036 16.4084L149.295 16.5229C148.778 16.5603 148.263 16.602 147.746 16.6373C147.473 16.656 147.196 16.654 146.922 16.681C146.313 16.7434 145.741 16.9037 145.386 17.4509C145.261 17.6292 145.178 17.8322 145.141 18.0458C145.104 18.2594 145.114 18.4785 145.171 18.6877C145.228 18.8969 145.331 19.0912 145.472 19.2571C145.613 19.423 145.789 19.5564 145.987 19.6481C146.048 19.6772 146.107 19.7105 146.197 19.7584C145.63 20.006 145.146 20.3223 145.018 20.9257C144.951 21.2018 144.948 21.4893 145.009 21.7668C145.07 22.0442 145.194 22.3044 145.371 22.5278C145.161 22.6069 144.951 22.6672 144.758 22.7546C144.445 22.9027 144.189 23.1477 144.029 23.4526C143.869 23.7575 143.814 24.1056 143.873 24.4441C143.899 24.6953 143.975 24.9389 144.097 25.1607C144.219 25.3825 144.384 25.5781 144.583 25.7362L144.646 25.7903C144.532 25.9382 144.429 26.0947 144.339 26.2585C144.208 26.5302 144.143 26.8291 144.152 27.1303H144.694C144.694 27.1033 144.694 27.0783 144.694 27.0513C144.684 26.7944 144.762 26.5417 144.917 26.3355C144.987 26.2469 145.08 26.1792 145.186 26.1398C145.292 26.1005 145.407 26.0912 145.518 26.1129C145.972 26.1774 146.426 26.2398 146.88 26.3084C147.265 26.3667 147.65 26.4333 148.034 26.4895C148.245 26.5228 148.472 26.5332 148.688 26.5706C149.138 26.6476 149.588 26.735 150.04 26.8161C150.426 26.889 150.815 26.9555 151.202 27.0242L151.738 27.1262H156.007C157.065 27.1223 158.078 26.7046 158.826 25.964C159.575 25.2234 159.997 24.2201 160 23.1728V3.95334C159.997 2.90567 159.574 1.90204 158.826 1.16142C158.077 0.420791 157.063 0.00328927 156.005 0V0ZM145.76 18.7264C145.649 18.4805 145.64 18.2008 145.737 17.9488C145.833 17.6968 146.027 17.4931 146.275 17.3822C146.583 17.2611 146.911 17.1996 147.242 17.2012L148.339 17.1305L149.63 17.0493C150.206 17.0119 150.779 16.9682 151.355 16.9307L152.755 16.8475C153.003 16.8308 153.251 16.8204 153.495 16.7851C153.675 16.7761 153.852 16.8307 153.995 16.939C154.423 17.1528 154.756 17.5151 154.931 17.9565C155.055 18.3138 155.055 18.7019 154.931 19.0593C154.87 19.2444 154.796 19.4255 154.72 19.6086C154.708 19.6525 154.68 19.6906 154.641 19.7157C154.602 19.7409 154.556 19.7516 154.51 19.7459C154.05 19.7459 153.592 19.7459 153.134 19.7605C152.458 19.7688 151.784 19.7792 151.112 19.7917L150.206 19.8104C149.572 19.8266 148.939 19.782 148.314 19.6772C148.024 19.6294 147.734 19.5815 147.442 19.5274C147.286 19.4983 147.133 19.4608 146.979 19.4192C146.578 19.2985 145.968 19.2153 145.76 18.7264ZM154.42 25.0808C154.435 25.8757 153.897 26.2564 153.289 26.5685C153.101 26.653 152.902 26.7118 152.698 26.7433C152.59 26.7592 152.479 26.7543 152.373 26.7287C151.845 26.6289 151.322 26.5207 150.794 26.4166C150.427 26.3459 150.057 26.2765 149.684 26.2086C149.18 26.1212 148.675 26.0317 148.169 25.9568C147.662 25.8819 147.118 25.8112 146.588 25.7383C146.185 25.6821 145.773 25.6551 145.378 25.5594C145.171 25.5061 144.981 25.4019 144.827 25.2563C144.672 25.1107 144.557 24.9286 144.493 24.7271C144.381 24.4514 144.366 24.1469 144.449 23.8615C144.505 23.676 144.612 23.5091 144.757 23.379C144.902 23.2489 145.08 23.1603 145.272 23.1229C145.657 23.0275 146.062 23.0478 146.435 23.1811C146.79 23.2914 147.154 23.3705 147.511 23.4683C147.992 23.5994 148.467 23.6764 148.955 23.7658C149.738 23.8819 150.528 23.9514 151.32 23.9739C152.228 24.003 153.136 24.0446 154.052 24.0738C154.113 24.0714 154.173 24.0894 154.223 24.1249C154.272 24.1603 154.308 24.2112 154.325 24.2694C154.435 24.5238 154.468 24.8042 154.42 25.0767V25.0808ZM155.54 22.1283C155.54 22.8233 155.071 23.202 154.472 23.4641C154.219 23.5468 153.949 23.5703 153.684 23.5328C152.501 23.4974 151.318 23.4433 150.134 23.4059C149.511 23.3624 148.893 23.2748 148.282 23.1437C147.881 23.0459 147.488 22.9356 147.089 22.8212C146.843 22.7546 146.59 22.7005 146.347 22.6131C146.193 22.5583 146.052 22.4727 145.933 22.3618C145.814 22.2508 145.719 22.1168 145.655 21.9681C145.566 21.8086 145.513 21.6316 145.5 21.4497C145.488 21.2679 145.515 21.0854 145.581 20.9153C145.712 20.6407 145.946 20.4277 146.233 20.3223C146.784 20.0733 147.403 20.0125 147.992 20.1496C148.598 20.2869 150.071 20.3223 150.649 20.3181C151.069 20.3181 151.473 20.3181 151.887 20.3056L153.125 20.2806L153.619 20.2702C153.903 20.2702 154.189 20.2702 154.472 20.2536C154.527 20.2487 154.582 20.2546 154.634 20.2711C154.686 20.2875 154.734 20.3141 154.775 20.3493C155.046 20.5557 155.259 20.8279 155.393 21.1395C155.527 21.4511 155.578 21.7917 155.54 22.1283Z" fill="white"/>
<path d="M37.0513 27.3243H36.02V19.504H37.0513V27.3243ZM40.1343 20.1056V21.5128H41.2192V22.2809H40.1343V25.8849C40.1343 26.1176 40.1826 26.2931 40.2793 26.4113C40.376 26.5258 40.5407 26.5831 40.7734 26.5831C40.888 26.5831 41.0456 26.5616 41.2461 26.5187V27.3243C40.9847 27.396 40.7305 27.4318 40.4834 27.4318C40.0394 27.4318 39.7046 27.2975 39.479 27.0289C39.2534 26.7604 39.1406 26.379 39.1406 25.8849V22.2809H38.0825V21.5128H39.1406V20.1056H40.1343ZM42.4546 21.7062L41.8906 21.3195C42.2236 20.854 42.3955 20.3634 42.4062 19.8478V19.0743H43.3892V19.7726C43.3856 20.1307 43.2961 20.4887 43.1206 20.8468C42.9487 21.2013 42.7267 21.4878 42.4546 21.7062ZM47.3691 25.7828C47.3691 25.5143 47.2671 25.3066 47.063 25.1598C46.8625 25.0094 46.5098 24.8805 46.0049 24.7731C45.5036 24.6656 45.1043 24.5367 44.8071 24.3864C44.5135 24.236 44.2951 24.0569 44.1519 23.8492C44.0122 23.6416 43.9424 23.3945 43.9424 23.108C43.9424 22.6318 44.1429 22.229 44.5439 21.8995C44.9486 21.5701 45.4642 21.4054 46.0908 21.4054C46.7497 21.4054 47.2832 21.5755 47.6914 21.9156C48.1032 22.2558 48.3091 22.6909 48.3091 23.2208H47.3101C47.3101 22.9487 47.1937 22.7142 46.9609 22.5172C46.7318 22.3203 46.4417 22.2218 46.0908 22.2218C45.7292 22.2218 45.4463 22.3006 45.2422 22.4581C45.0381 22.6157 44.936 22.8216 44.936 23.0758C44.936 23.3157 45.0309 23.4965 45.2207 23.6183C45.4105 23.74 45.7524 23.8564 46.2466 23.9674C46.7443 24.0784 47.1471 24.2109 47.4551 24.3649C47.763 24.5188 47.9904 24.705 48.1372 24.9235C48.2876 25.1383 48.3628 25.4015 48.3628 25.713C48.3628 26.2322 48.1551 26.6494 47.7397 26.9645C47.3244 27.276 46.7855 27.4318 46.123 27.4318C45.6576 27.4318 45.2458 27.3494 44.8877 27.1847C44.5296 27.02 44.2485 26.7908 44.0444 26.4972C43.8439 26.2 43.7437 25.8795 43.7437 25.5358H44.7373C44.7552 25.8688 44.8877 26.1337 45.1348 26.3307C45.3854 26.524 45.7148 26.6207 46.123 26.6207C46.499 26.6207 46.7998 26.5455 47.0254 26.3951C47.2546 26.2412 47.3691 26.0371 47.3691 25.7828ZM55.7695 25.7828C55.7695 25.5143 55.6675 25.3066 55.4634 25.1598C55.2629 25.0094 54.9102 24.8805 54.4053 24.7731C53.904 24.6656 53.5047 24.5367 53.2075 24.3864C52.9139 24.236 52.6955 24.0569 52.5522 23.8492C52.4126 23.6416 52.3428 23.3945 52.3428 23.108C52.3428 22.6318 52.5433 22.229 52.9443 21.8995C53.349 21.5701 53.8646 21.4054 54.4912 21.4054C55.1501 21.4054 55.6836 21.5755 56.0918 21.9156C56.5036 22.2558 56.7095 22.6909 56.7095 23.2208H55.7104C55.7104 22.9487 55.5941 22.7142 55.3613 22.5172C55.1322 22.3203 54.8421 22.2218 54.4912 22.2218C54.1296 22.2218 53.8467 22.3006 53.6426 22.4581C53.4385 22.6157 53.3364 22.8216 53.3364 23.0758C53.3364 23.3157 53.4313 23.4965 53.6211 23.6183C53.8109 23.74 54.1528 23.8564 54.647 23.9674C55.1447 24.0784 55.5475 24.2109 55.8555 24.3649C56.1634 24.5188 56.3908 24.705 56.5376 24.9235C56.688 25.1383 56.7632 25.4015 56.7632 25.713C56.7632 26.2322 56.5555 26.6494 56.1401 26.9645C55.7248 27.276 55.1859 27.4318 54.5234 27.4318C54.0579 27.4318 53.6462 27.3494 53.2881 27.1847C52.93 27.02 52.6489 26.7908 52.4448 26.4972C52.2443 26.2 52.144 25.8795 52.144 25.5358H53.1377C53.1556 25.8688 53.2881 26.1337 53.5352 26.3307C53.7858 26.524 54.1152 26.6207 54.5234 26.6207C54.8994 26.6207 55.2002 26.5455 55.4258 26.3951C55.6549 26.2412 55.7695 26.0371 55.7695 25.7828ZM59.1372 27.3243H58.1436V21.5128H59.1372V27.3243ZM58.063 19.9713C58.063 19.8102 58.1113 19.6741 58.208 19.5631C58.3083 19.4521 58.4551 19.3966 58.6484 19.3966C58.8418 19.3966 58.9886 19.4521 59.0889 19.5631C59.1891 19.6741 59.2393 19.8102 59.2393 19.9713C59.2393 20.1324 59.1891 20.2667 59.0889 20.3741C58.9886 20.4816 58.8418 20.5353 58.6484 20.5353C58.4551 20.5353 58.3083 20.4816 58.208 20.3741C58.1113 20.2667 58.063 20.1324 58.063 19.9713ZM61.667 21.5128L61.6938 22.1573C62.12 21.656 62.6947 21.4054 63.418 21.4054C64.2308 21.4054 64.784 21.7169 65.0776 22.34C65.271 22.0607 65.5216 21.8351 65.8296 21.6632C66.1411 21.4913 66.5081 21.4054 66.9307 21.4054C68.2054 21.4054 68.8535 22.0804 68.875 23.4303V27.3243H67.8813V23.4894C67.8813 23.074 67.7865 22.7643 67.5967 22.5602C67.4069 22.3525 67.0882 22.2487 66.6406 22.2487C66.2718 22.2487 65.9657 22.3597 65.7222 22.5817C65.4787 22.8001 65.3372 23.0955 65.2979 23.4679V27.3243H64.2988V23.5162C64.2988 22.6712 63.8853 22.2487 63.0581 22.2487C62.4064 22.2487 61.9606 22.5262 61.7207 23.0812V27.3243H60.7271V21.5128H61.667ZM75.2881 24.483C75.2881 25.3675 75.0858 26.08 74.6812 26.6207C74.2765 27.1614 73.7287 27.4318 73.0376 27.4318C72.3322 27.4318 71.7772 27.208 71.3726 26.7604V29.5587H70.3789V21.5128H71.2866L71.335 22.1573C71.7396 21.656 72.3018 21.4054 73.0215 21.4054C73.7197 21.4054 74.2712 21.6686 74.6758 22.1949C75.084 22.7213 75.2881 23.4536 75.2881 24.3917V24.483ZM74.2944 24.3702C74.2944 23.715 74.1548 23.1976 73.8755 22.818C73.5962 22.4384 73.2131 22.2487 72.7261 22.2487C72.1245 22.2487 71.6733 22.5154 71.3726 23.049V25.8258C71.6698 26.3558 72.1245 26.6207 72.7368 26.6207C73.2131 26.6207 73.5908 26.4327 73.8701 26.0568C74.153 25.6772 74.2944 25.115 74.2944 24.3702ZM77.6353 27.3243H76.6416V19.0743H77.6353V27.3243ZM81.6421 27.4318C80.8543 27.4318 80.2134 27.174 79.7192 26.6583C79.2251 26.1391 78.978 25.4462 78.978 24.5797V24.3971C78.978 23.8206 79.0872 23.3068 79.3057 22.8556C79.5277 22.4008 79.8356 22.0463 80.2295 21.7921C80.627 21.5343 81.0566 21.4054 81.5186 21.4054C82.2741 21.4054 82.8613 21.6543 83.2803 22.152C83.6992 22.6497 83.9087 23.3623 83.9087 24.2897V24.7032H79.9717C79.986 25.2762 80.1525 25.7399 80.4712 26.0944C80.7935 26.4453 81.2017 26.6207 81.6958 26.6207C82.0467 26.6207 82.3439 26.5491 82.5874 26.4059C82.8309 26.2627 83.0439 26.0729 83.2266 25.8365L83.8335 26.3092C83.3465 27.0576 82.616 27.4318 81.6421 27.4318ZM81.5186 22.2218C81.1175 22.2218 80.7809 22.3686 80.5088 22.6622C80.2367 22.9523 80.0684 23.3605 80.0039 23.8868H82.915V23.8116C82.8864 23.3068 82.7503 22.9165 82.5068 22.6407C82.2633 22.3615 81.9339 22.2218 81.5186 22.2218ZM91.3799 27.3243C91.3226 27.2098 91.276 27.0057 91.2402 26.712C90.7783 27.1919 90.2269 27.4318 89.5859 27.4318C89.013 27.4318 88.5422 27.2706 88.1733 26.9484C87.8081 26.6225 87.6255 26.2107 87.6255 25.713C87.6255 25.1079 87.8547 24.6388 88.313 24.3058C88.7749 23.9692 89.423 23.8009 90.2573 23.8009H91.2241V23.3444C91.2241 22.997 91.1203 22.7213 90.9126 22.5172C90.7049 22.3095 90.3988 22.2057 89.9941 22.2057C89.6396 22.2057 89.3424 22.2952 89.1025 22.4742C88.8626 22.6533 88.7427 22.8699 88.7427 23.1241H87.7437C87.7437 22.8341 87.8457 22.5548 88.0498 22.2863C88.2575 22.0141 88.5368 21.7993 88.8877 21.6417C89.2422 21.4842 89.6307 21.4054 90.0532 21.4054C90.7228 21.4054 91.2474 21.5737 91.627 21.9103C92.0065 22.2433 92.2035 22.7034 92.2178 23.2906V25.9655C92.2178 26.499 92.2858 26.9233 92.4219 27.2384V27.3243H91.3799ZM89.731 26.567C90.0425 26.567 90.3379 26.4865 90.6172 26.3253C90.8965 26.1642 91.0988 25.9547 91.2241 25.6969V24.5045H90.4453C89.2279 24.5045 88.6191 24.8608 88.6191 25.5734C88.6191 25.8849 88.723 26.1284 88.9307 26.3038C89.1383 26.4793 89.4051 26.567 89.731 26.567ZM94.7153 21.5128L94.7476 22.2433C95.1916 21.6847 95.7716 21.4054 96.4878 21.4054C97.716 21.4054 98.3354 22.0983 98.3462 23.484V27.3243H97.3525V23.4786C97.349 23.0597 97.2523 22.75 97.0625 22.5494C96.8763 22.3489 96.5845 22.2487 96.187 22.2487C95.8647 22.2487 95.5819 22.3346 95.3384 22.5065C95.0949 22.6783 94.9051 22.9039 94.769 23.1832V27.3243H93.7754V21.5128H94.7153ZM99.603 24.3702C99.603 23.4786 99.8143 22.7625 100.237 22.2218C100.659 21.6775 101.213 21.4054 101.896 21.4054C102.577 21.4054 103.116 21.6381 103.513 22.1036V19.0743H104.507V27.3243H103.594L103.545 26.7013C103.148 27.1883 102.595 27.4318 101.886 27.4318C101.213 27.4318 100.663 27.156 100.237 26.6046C99.8143 26.0532 99.603 25.3335 99.603 24.4454V24.3702ZM100.597 24.483C100.597 25.1419 100.733 25.6575 101.005 26.0299C101.277 26.4023 101.653 26.5885 102.133 26.5885C102.763 26.5885 103.223 26.3056 103.513 25.7399V23.0704C103.216 22.5226 102.759 22.2487 102.144 22.2487C101.657 22.2487 101.277 22.4366 101.005 22.8126C100.733 23.1886 100.597 23.7454 100.597 24.483ZM109.271 27.3243V22.2809H108.353V21.5128H109.271V20.9166C109.271 20.2936 109.438 19.812 109.771 19.4718C110.104 19.1316 110.574 18.9615 111.183 18.9615C111.412 18.9615 111.64 18.992 111.865 19.0529L111.812 19.8585C111.643 19.8263 111.464 19.8102 111.274 19.8102C110.952 19.8102 110.703 19.9051 110.528 20.0948C110.352 20.281 110.265 20.5496 110.265 20.9005V21.5128H111.505V22.2809H110.265V27.3243H109.271ZM116.194 27.3243C116.137 27.2098 116.09 27.0057 116.055 26.712C115.593 27.1919 115.041 27.4318 114.4 27.4318C113.827 27.4318 113.357 27.2706 112.988 26.9484C112.623 26.6225 112.44 26.2107 112.44 25.713C112.44 25.1079 112.669 24.6388 113.127 24.3058C113.589 23.9692 114.237 23.8009 115.072 23.8009H116.039V23.3444C116.039 22.997 115.935 22.7213 115.727 22.5172C115.519 22.3095 115.213 22.2057 114.809 22.2057C114.454 22.2057 114.157 22.2952 113.917 22.4742C113.677 22.6533 113.557 22.8699 113.557 23.1241H112.558C112.558 22.8341 112.66 22.5548 112.864 22.2863C113.072 22.0141 113.351 21.7993 113.702 21.6417C114.057 21.4842 114.445 21.4054 114.868 21.4054C115.537 21.4054 116.062 21.5737 116.441 21.9103C116.821 22.2433 117.018 22.7034 117.032 23.2906V25.9655C117.032 26.499 117.1 26.9233 117.236 27.2384V27.3243H116.194ZM114.545 26.567C114.857 26.567 115.152 26.4865 115.432 26.3253C115.711 26.1642 115.913 25.9547 116.039 25.6969V24.5045H115.26C114.042 24.5045 113.434 24.8608 113.434 25.5734C113.434 25.8849 113.537 26.1284 113.745 26.3038C113.953 26.4793 114.22 26.567 114.545 26.567ZM119.669 27.3243H118.676V21.5128H119.669V27.3243ZM118.595 19.9713C118.595 19.8102 118.644 19.6741 118.74 19.5631C118.84 19.4521 118.987 19.3966 119.181 19.3966C119.374 19.3966 119.521 19.4521 119.621 19.5631C119.721 19.6741 119.771 19.8102 119.771 19.9713C119.771 20.1324 119.721 20.2667 119.621 20.3741C119.521 20.4816 119.374 20.5353 119.181 20.5353C118.987 20.5353 118.84 20.4816 118.74 20.3741C118.644 20.2667 118.595 20.1324 118.595 19.9713ZM124.074 22.4044C123.923 22.3794 123.76 22.3668 123.585 22.3668C122.933 22.3668 122.491 22.6443 122.258 23.1993V27.3243H121.265V21.5128H122.231L122.248 22.1842C122.573 21.665 123.035 21.4054 123.633 21.4054C123.827 21.4054 123.973 21.4305 124.074 21.4806V22.4044Z" fill="white"/>
</svg>
