<svg width="238" height="48" viewBox="0 0 238 48" fill="none" xmlns="http://www.w3.org/2000/svg">
<path d="M8.41669 15.7843C8.42546 16.3104 8.38147 16.8361 8.28538 17.3535C8.24556 17.6179 8.12183 17.8629 7.93208 18.053C7.72465 18.2031 7.46872 18.2725 7.21297 18.248C6.52513 18.248 6.30001 18.0159 6.18433 17.8116C6.01237 17.5021 5.80914 16.9202 5.80914 15.7843V14.2121H0V16.2331C0.00787084 17.2837 0.175456 18.327 0.497123 19.3282C0.893276 20.5234 1.64665 21.5714 2.65757 22.3335C3.75187 23.2125 5.31515 23.6612 7.24423 23.6612C10.1363 23.6612 12.0654 22.7327 12.9815 20.9376C13.8491 19.1249 14.2774 17.1367 14.2321 15.1313V1.65234H8.41669V15.7843Z" fill="white"/>
<path d="M32.1431 20.0153C32.639 19.1423 32.9765 18.1901 33.1405 17.2019C33.2624 16.4038 33.3251 15.598 33.3281 14.7908V1.65234H27.5127V14.0325C27.5333 14.8826 27.4354 15.7314 27.2219 16.555C27.1002 17.0603 26.8106 17.5104 26.3996 17.8333C25.9103 18.1456 25.3331 18.2952 24.7519 18.2604C24.1636 18.2994 23.5785 18.1473 23.0855 17.8271C22.6759 17.4969 22.388 17.0421 22.2663 16.5333C22.0608 15.7158 21.9661 14.8748 21.9849 14.0325V1.65234H16.1758V14.7908C16.1758 20.594 19.1429 23.6612 24.7519 23.6612C26.6716 23.6612 28.2568 23.3084 29.4699 22.6151C30.5882 22.0118 31.514 21.1114 32.1431 20.0153Z" fill="white"/>
<path d="M47.9122 10.5222C46.63 9.98656 45.2965 9.58009 43.932 9.30894C43.092 9.14986 42.2736 8.89434 41.4933 8.54755C41.2463 8.42685 40.9962 8.22257 40.9962 7.61904C40.9949 7.47179 41.0275 7.32618 41.0914 7.19321C41.1553 7.06023 41.2489 6.94338 41.3651 6.85147C41.5184 6.71838 41.9342 6.49244 42.991 6.49244C44.9169 6.49244 45.239 7.22597 45.3015 7.94402L45.364 8.64969H50.8918L50.8761 7.86045C50.8655 6.67084 50.5606 5.50192 49.9882 4.4559C49.3854 3.39132 48.4753 2.52915 47.3744 1.97986C46.0943 1.35207 44.6785 1.04392 43.2505 1.08229C40.4022 1.08229 38.3074 1.72606 37.0224 2.99194C36.39 3.6104 35.8922 4.35034 35.5593 5.16629C35.2265 5.98224 35.0658 6.85695 35.087 7.73665C35.0578 8.78101 35.2473 9.82004 35.6435 10.7884C35.986 11.5842 36.5233 12.283 37.2068 12.8218C37.7939 13.2813 38.4501 13.6468 39.1515 13.9051C39.7769 14.1279 40.6023 14.3693 41.6309 14.6262C42.6595 14.8831 43.2755 15.0255 43.585 15.1091C43.9252 15.2101 44.2559 15.3406 44.573 15.499C44.8822 15.6395 45.1525 15.8519 45.3609 16.118C45.5405 16.3674 45.6297 16.6695 45.6141 16.9754C45.6141 17.3561 45.6141 18.2474 43.1786 18.2474C42.053 18.2474 41.3026 18.0184 40.9587 17.5603C40.5696 17.0788 40.3569 16.4809 40.3553 15.8643V15.0905H34.4805V15.8735C34.5081 17.7735 35.1441 19.6158 36.297 21.1351C37.5476 22.8188 39.83 23.67 43.1129 23.67C46.0425 23.67 48.1998 22.9457 49.5317 21.5034C50.8478 20.0753 51.5558 18.1991 51.5077 16.2666C51.5077 14.8088 51.195 13.5956 50.5478 12.6671C49.8895 11.7219 48.9762 10.9788 47.9122 10.5222Z" fill="white"/>
<path d="M67.9552 1.65234H51.2656V7.06559H56.7152V23.0918H62.5244V7.06559H67.9552V1.65234Z" fill="white"/>
<path d="M90.7724 12.3407C90.768 10.7106 90.5462 9.08819 90.1127 7.51555C89.6466 5.81611 88.6905 4.28786 87.3613 3.11749C85.9606 1.8578 83.9971 1.21094 81.5334 1.21094H73.2637V23.5386H81.1614C85.5448 23.5386 90.7724 21.5949 90.7724 12.3407ZM78.9321 17.9521V6.80988H81.0113C82.6308 6.80988 84.7819 7.39485 84.7819 12.4522C84.7819 14.3278 84.4442 15.7515 83.7783 16.6862C83.153 17.5497 82.1775 17.9675 80.7612 17.9675L78.9321 17.9521Z" fill="white"/>
<path d="M110.586 12.38C110.594 10.9062 110.423 9.4369 110.077 8.00357C109.754 6.66635 109.191 5.39769 108.413 4.25856C107.637 3.13032 106.59 2.21126 105.365 1.58444C104.007 0.914806 102.504 0.583332 100.988 0.618783C99.1367 0.618783 97.5484 1.00876 96.2634 1.78252C95.0219 2.51714 93.9908 3.55381 93.2681 4.79401C92.586 5.96617 92.0943 7.23727 91.8111 8.56068C91.2713 11.0705 91.2713 13.6647 91.8111 16.1745C92.0933 17.4996 92.5862 18.7721 93.2713 19.9443C94.0028 21.1898 95.0449 22.2288 96.2978 22.9619C97.7214 23.7753 99.3444 24.1833 100.988 24.1412C102.505 24.1744 104.008 23.8397 105.365 23.1662C106.583 22.5374 107.626 21.6211 108.401 20.4983C109.177 19.3585 109.74 18.0901 110.064 16.7533C110.415 15.3215 110.59 13.8532 110.586 12.38ZM100.988 18.5453C100.385 18.55 99.793 18.3859 99.2805 18.0718C98.7803 17.7623 98.3425 17.1773 97.9924 16.3107C97.6109 15.3822 97.4171 14.0544 97.4171 12.3676C97.4171 10.1113 97.761 8.47711 98.4363 7.51765C98.7092 7.09677 99.0878 6.75317 99.5349 6.52045C99.9821 6.28772 100.483 6.17382 100.988 6.18987C101.595 6.18479 102.193 6.34656 102.713 6.65723C103.214 6.95126 103.651 7.53931 104.005 8.40593C104.389 9.33444 104.586 10.6653 104.586 12.3583C104.586 15.5555 103.961 16.8554 103.436 17.3847C102.682 18.1677 101.879 18.5453 100.988 18.5453Z" fill="white"/>
<path d="M129.883 17.5455H121.879V1.19434H116.264V23.0361H129.883V17.5455Z" fill="white"/>
<path d="M141.503 13.7974C141.524 14.6743 141.43 15.5501 141.225 16.4034C141.137 16.9347 140.845 17.412 140.411 17.736C139.976 18.06 139.433 18.2057 138.892 18.1428C138.336 18.1835 137.783 18.0302 137.329 17.7095C136.929 17.3614 136.654 16.8945 136.544 16.3787C136.347 15.5378 136.255 14.676 136.272 13.8129V1.19434H130.645V14.5835C130.645 22.0488 135.116 23.618 138.867 23.618C140.712 23.618 142.238 23.2528 143.407 22.5378C144.491 21.9053 145.377 20.987 145.965 19.8853C146.449 18.9911 146.781 18.0237 146.946 17.0224C147.062 16.2103 147.122 15.3913 147.125 14.5711V1.19434H141.497L141.503 13.7974Z" fill="white"/>
<path d="M151.26 21.3223C152.102 22.1389 153.122 22.7531 154.243 23.1174C155.316 23.4527 156.435 23.6219 157.56 23.6188C159.676 23.6188 161.39 23.1329 162.653 22.1734C163.821 21.3201 164.726 20.1616 165.267 18.8276C165.73 17.6536 166.025 16.4212 166.142 15.1662L166.22 14.3244H160.646L160.564 15.0084C160.473 15.8198 160.183 16.5968 159.717 17.2708C159.326 17.8465 158.676 18.1251 157.735 18.1251C157.398 18.1376 157.062 18.0836 156.746 17.9662C156.431 17.8487 156.142 17.6702 155.896 17.4411C155.325 16.873 154.914 16.1665 154.705 15.3921C154.419 14.3916 154.279 13.3556 154.289 12.3157C154.272 10.7714 154.539 9.23692 155.077 7.78761C155.518 6.63934 156.328 6.1039 157.607 6.1039C159.336 6.1039 160.202 6.98289 160.421 8.95444L160.496 9.64464H165.992L165.961 8.83992C165.917 7.47577 165.598 6.13404 165.023 4.89373C164.41 3.61273 163.431 2.537 162.209 1.79869C160.958 1.01254 159.333 0.613281 157.425 0.613281C155.187 0.613281 153.361 1.21372 151.982 2.40222C150.621 3.58787 149.633 5.13611 149.137 6.86219C148.604 8.69278 148.34 10.59 148.355 12.4952C148.317 14.3012 148.581 16.1011 149.137 17.8218C149.559 19.1367 150.286 20.3356 151.26 21.3223Z" fill="white"/>
<path d="M172.783 16.1063L173.831 14.8528L178.649 23.0361H185.558L177.698 10.4392L185.283 1.19434H178.205L172.783 7.99726V1.19434H167.168V23.0361H172.783V16.1063Z" fill="white"/>
<path d="M218.584 4.72304C218.803 4.96755 220.46 3.86572 222.301 2.24701C223.117 1.54918 223.884 0.798526 224.599 0L223.036 0C222.533 0.362121 221.976 0.798523 221.417 1.29064C219.588 2.89697 218.365 4.47854 218.584 4.72304Z" fill="white"/>
<path d="M232.057 0H226.676C226.276 0.928515 225.01 2.22844 223.44 3.60264C221.192 5.57109 219.173 6.95458 218.463 6.1901L218.097 5.78155C217.409 5.01089 218.901 3.01767 221.167 1.03375C221.602 0.668531 222.033 0.309505 222.452 0H203.171C201.597 0.00570805 200.09 0.627102 198.977 1.72869C197.864 2.83028 197.236 4.32272 197.23 5.88059V29.0099L197.302 28.9851C198.618 28.5116 199.856 27.8483 200.976 27.0167C201.596 26.5082 202.183 25.9613 202.733 25.3794C203.249 24.878 203.768 24.3828 204.296 23.8876C204.556 23.4698 204.819 23.0519 205.072 22.6279C205.215 22.3624 205.343 22.0897 205.456 21.8108C205.686 21.3894 206.036 21.0447 206.463 20.8204C207.671 20.0816 208.82 19.2539 209.902 18.3444C210.69 17.6758 211.466 16.9887 212.21 16.2707C213.407 15.1458 214.407 13.8309 215.168 12.3802C215.633 11.4517 216.256 8.87041 216.284 8.79613C216.326 8.64646 216.424 8.51816 216.558 8.43673C216.692 8.35529 216.852 8.3267 217.006 8.35663C217.41 8.39734 217.794 8.55071 218.113 8.7989C218.433 9.0471 218.674 9.37992 218.81 9.75869C219.079 10.4088 219.246 11.0954 219.307 11.7952C219.383 12.591 219.366 13.3927 219.257 14.1846C219.108 15.402 218.741 16.5833 218.172 17.6727C217.911 18.1328 217.596 18.5608 217.234 18.9479C216.296 19.9909 215.327 20.9999 214.398 22.0429C214.247 22.2322 214.12 22.4403 214.023 22.662C216.118 23.1076 222.227 24.1754 225.063 24.3395V24.4076C224.932 24.4076 224.797 24.4076 224.666 24.4076L222.077 24.5778C221.308 24.6335 220.542 24.6954 219.773 24.748C219.366 24.7759 218.954 24.7728 218.547 24.813C217.641 24.9059 216.79 25.1442 216.262 25.9582C216.077 26.2234 215.952 26.5254 215.897 26.8431C215.842 27.1609 215.857 27.4867 215.942 27.7979C216.027 28.1091 216.18 28.3982 216.39 28.6449C216.599 28.8917 216.861 29.0902 217.156 29.2266C217.247 29.2699 217.334 29.3194 217.469 29.3906C216.625 29.7589 215.905 30.2294 215.715 31.1269C215.615 31.5377 215.611 31.9654 215.701 32.3781C215.792 32.7908 215.977 33.1778 216.24 33.5101C215.927 33.6277 215.615 33.7175 215.327 33.8475C214.861 34.0677 214.481 34.4322 214.243 34.8857C214.006 35.3392 213.924 35.857 214.011 36.3606C214.05 36.7343 214.163 37.0966 214.344 37.4265C214.526 37.7565 214.772 38.0475 215.067 38.2827L215.161 38.3631C214.991 38.5831 214.838 38.8159 214.705 39.0595C214.509 39.4636 214.413 39.9083 214.427 40.3564H215.233C215.233 40.3161 215.233 40.279 215.233 40.2387C215.217 39.8567 215.334 39.4807 215.565 39.174C215.668 39.0423 215.806 38.9415 215.964 38.883C216.122 38.8245 216.293 38.8106 216.459 38.8429C217.134 38.9388 217.809 39.0317 218.485 39.1338C219.057 39.2205 219.629 39.3195 220.201 39.4031C220.514 39.4526 220.852 39.4681 221.174 39.5238C221.843 39.6383 222.512 39.7683 223.184 39.889C223.759 39.9973 224.338 40.0964 224.913 40.1985L225.71 40.3502H232.06C233.634 40.3445 235.142 39.7231 236.254 38.6215C237.367 37.5199 237.995 36.0274 238.001 34.4696V5.88059C237.995 4.32219 237.367 2.82928 236.253 1.7276C235.14 0.625927 233.631 0.00489279 232.057 0V0ZM216.818 27.8554C216.652 27.4897 216.64 27.0738 216.784 26.6989C216.927 26.3241 217.215 26.0209 217.584 25.856C218.042 25.6759 218.53 25.5845 219.023 25.5868L220.655 25.4815L222.574 25.3608C223.431 25.3051 224.285 25.2401 225.141 25.1844L227.224 25.0606C227.592 25.0359 227.961 25.0204 228.324 24.9678C228.592 24.9545 228.855 25.0357 229.068 25.1968C229.704 25.5149 230.199 26.0536 230.46 26.7103C230.644 27.2418 230.644 27.8191 230.46 28.3507C230.369 28.6261 230.259 28.8954 230.147 29.1677C230.128 29.2332 230.086 29.2897 230.029 29.3272C229.971 29.3646 229.902 29.3806 229.834 29.372C229.149 29.372 228.468 29.372 227.786 29.3937C226.782 29.4061 225.779 29.4215 224.779 29.4401L223.431 29.468C222.489 29.492 221.546 29.4257 220.617 29.2699C220.186 29.1987 219.754 29.1275 219.32 29.047C219.088 29.0037 218.86 28.948 218.632 28.8861C218.035 28.7066 217.128 28.5828 216.818 27.8554ZM229.7 37.3077C229.722 38.49 228.921 39.0564 228.018 39.5207C227.738 39.6463 227.442 39.7337 227.139 39.7807C226.978 39.8044 226.813 39.797 226.654 39.759C225.87 39.6105 225.091 39.4495 224.306 39.2948C223.76 39.1895 223.21 39.0864 222.656 38.9852C221.905 38.8553 221.155 38.7222 220.401 38.6107C219.648 38.4993 218.838 38.3941 218.05 38.2858C217.45 38.2022 216.837 38.162 216.249 38.0196C215.942 37.9404 215.66 37.7853 215.43 37.5687C215.2 37.3522 215.029 37.0813 214.933 36.7816C214.767 36.3715 214.744 35.9185 214.867 35.494C214.952 35.218 215.11 34.9698 215.326 34.7763C215.542 34.5827 215.807 34.451 216.093 34.3953C216.665 34.2534 217.267 34.2836 217.822 34.482C218.35 34.646 218.891 34.7636 219.423 34.9091C220.139 35.1041 220.845 35.2186 221.571 35.3517C222.736 35.5244 223.91 35.6277 225.088 35.6612C226.439 35.7045 227.789 35.7664 229.153 35.8097C229.243 35.8062 229.333 35.833 229.407 35.8857C229.48 35.9385 229.534 36.0141 229.559 36.1007C229.722 36.4792 229.771 36.8962 229.7 37.3015V37.3077ZM231.366 32.9159C231.366 33.9496 230.669 34.5129 229.778 34.9029C229.4 35.0259 228.999 35.0609 228.605 35.005C226.845 34.9524 225.085 34.8719 223.325 34.8162C222.398 34.7516 221.478 34.6213 220.57 34.4262C219.973 34.2808 219.388 34.1167 218.794 33.9465C218.429 33.8475 218.053 33.767 217.691 33.637C217.462 33.5555 217.253 33.4282 217.076 33.2631C216.899 33.0981 216.758 32.8987 216.662 32.6775C216.529 32.4402 216.451 32.1771 216.432 31.9065C216.413 31.6359 216.454 31.3646 216.553 31.1114C216.746 30.703 217.094 30.3862 217.522 30.2294C218.341 29.859 219.262 29.7687 220.139 29.9725C221.039 30.1767 223.231 30.2294 224.091 30.2232C224.716 30.2232 225.316 30.2232 225.932 30.2046L227.774 30.1675L228.509 30.152C228.931 30.152 229.356 30.152 229.778 30.1272C229.859 30.1199 229.94 30.1287 230.018 30.1532C230.095 30.1777 230.167 30.2172 230.228 30.2696C230.632 30.5767 230.948 30.9815 231.148 31.445C231.347 31.9086 231.422 32.4151 231.366 32.9159Z" fill="white"/>
<path d="M51.1211 31.5908V43.6768H49.519V31.5908H51.1211ZM57.5625 34.6953V35.874H52.7065V34.6953H57.5625ZM54.3501 32.5122H55.8857V41.4521C55.8857 41.7565 55.9328 41.9862 56.0269 42.1411C56.1209 42.2961 56.2427 42.3984 56.3921 42.4482C56.5415 42.498 56.702 42.5229 56.8735 42.5229C57.0008 42.5229 57.1336 42.5119 57.272 42.4897C57.4159 42.4621 57.5238 42.4399 57.5957 42.4233L57.604 43.6768C57.4823 43.7155 57.3218 43.7515 57.1226 43.7847C56.9289 43.8234 56.6937 43.8428 56.417 43.8428C56.0407 43.8428 55.6948 43.7681 55.3794 43.6187C55.064 43.4692 54.8122 43.2202 54.624 42.8716C54.4414 42.5174 54.3501 42.0415 54.3501 41.4438V32.5122ZM60.916 30.9268V31.9893C60.916 32.3213 60.8579 32.6727 60.7417 33.0435C60.631 33.4087 60.4678 33.7629 60.252 34.106C60.0361 34.4435 59.776 34.7396 59.4717 34.9941L58.5918 34.3882C58.8519 34.0229 59.0483 33.6494 59.1812 33.2676C59.3195 32.8802 59.3887 32.4624 59.3887 32.0142V30.9268H60.916ZM67.0669 41.2944C67.0669 41.0731 67.0171 40.8683 66.9175 40.6802C66.8234 40.4865 66.627 40.3122 66.3281 40.1572C66.0348 39.9967 65.5921 39.8584 65 39.7422C64.502 39.637 64.0509 39.5125 63.647 39.3687C63.2485 39.2248 62.9082 39.0505 62.626 38.8457C62.3493 38.641 62.1362 38.4002 61.9868 38.1235C61.8374 37.8468 61.7627 37.5231 61.7627 37.1523C61.7627 36.7982 61.8402 36.4634 61.9951 36.1479C62.1556 35.8325 62.3797 35.5531 62.6675 35.3096C62.9608 35.0661 63.3122 34.8752 63.7217 34.7368C64.1312 34.5985 64.5877 34.5293 65.0913 34.5293C65.8107 34.5293 66.425 34.6566 66.9341 34.9111C67.4432 35.1657 67.8333 35.506 68.1045 35.9321C68.3757 36.3527 68.5112 36.8203 68.5112 37.335H66.9756C66.9756 37.0859 66.9009 36.8452 66.7515 36.6128C66.6076 36.3748 66.3945 36.1784 66.1123 36.0234C65.8356 35.8685 65.4953 35.791 65.0913 35.791C64.6652 35.791 64.3193 35.8574 64.0537 35.9902C63.7936 36.1175 63.6027 36.2808 63.481 36.48C63.3647 36.6792 63.3066 36.8895 63.3066 37.1108C63.3066 37.2769 63.3343 37.4263 63.3896 37.5591C63.4505 37.6864 63.5557 37.8053 63.7051 37.916C63.8545 38.0212 64.0648 38.1208 64.3359 38.2148C64.6071 38.3089 64.953 38.403 65.3735 38.4971C66.1095 38.6631 66.7155 38.8623 67.1914 39.0947C67.6673 39.3271 68.0215 39.6121 68.2539 39.9497C68.4863 40.2873 68.6025 40.6968 68.6025 41.1782C68.6025 41.5711 68.5195 41.9308 68.3535 42.2573C68.193 42.5838 67.9578 42.866 67.6479 43.104C67.3436 43.3364 66.9784 43.519 66.5522 43.6519C66.1317 43.7791 65.6585 43.8428 65.1328 43.8428C64.3415 43.8428 63.6719 43.7017 63.124 43.4194C62.5762 43.1372 62.1611 42.772 61.8789 42.3237C61.5967 41.8755 61.4556 41.4023 61.4556 40.9043H62.9995C63.0216 41.3249 63.1434 41.6597 63.3647 41.9087C63.5861 42.1522 63.8573 42.3265 64.1782 42.4316C64.4992 42.5312 64.8174 42.5811 65.1328 42.5811C65.5534 42.5811 65.9048 42.5257 66.187 42.415C66.4748 42.3044 66.6934 42.1522 66.8428 41.9585C66.9922 41.7648 67.0669 41.5435 67.0669 41.2944ZM80.0659 41.2944C80.0659 41.0731 80.0161 40.8683 79.9165 40.6802C79.8224 40.4865 79.626 40.3122 79.3271 40.1572C79.0339 39.9967 78.5911 39.8584 77.999 39.7422C77.501 39.637 77.05 39.5125 76.646 39.3687C76.2476 39.2248 75.9072 39.0505 75.625 38.8457C75.3483 38.641 75.1353 38.4002 74.9858 38.1235C74.8364 37.8468 74.7617 37.5231 74.7617 37.1523C74.7617 36.7982 74.8392 36.4634 74.9941 36.1479C75.1546 35.8325 75.3787 35.5531 75.6665 35.3096C75.9598 35.0661 76.3112 34.8752 76.7207 34.7368C77.1302 34.5985 77.5868 34.5293 78.0903 34.5293C78.8097 34.5293 79.424 34.6566 79.9331 34.9111C80.4422 35.1657 80.8324 35.506 81.1035 35.9321C81.3747 36.3527 81.5103 36.8203 81.5103 37.335H79.9746C79.9746 37.0859 79.8999 36.8452 79.7505 36.6128C79.6066 36.3748 79.3936 36.1784 79.1113 36.0234C78.8346 35.8685 78.4943 35.791 78.0903 35.791C77.6642 35.791 77.3184 35.8574 77.0527 35.9902C76.7926 36.1175 76.6017 36.2808 76.48 36.48C76.3638 36.6792 76.3057 36.8895 76.3057 37.1108C76.3057 37.2769 76.3333 37.4263 76.3887 37.5591C76.4495 37.6864 76.5547 37.8053 76.7041 37.916C76.8535 38.0212 77.0638 38.1208 77.335 38.2148C77.6061 38.3089 77.952 38.403 78.3726 38.4971C79.1086 38.6631 79.7145 38.8623 80.1904 39.0947C80.6663 39.3271 81.0205 39.6121 81.2529 39.9497C81.4854 40.2873 81.6016 40.6968 81.6016 41.1782C81.6016 41.5711 81.5186 41.9308 81.3525 42.2573C81.1921 42.5838 80.9569 42.866 80.647 43.104C80.3426 43.3364 79.9774 43.519 79.5513 43.6519C79.1307 43.7791 78.6576 43.8428 78.1318 43.8428C77.3405 43.8428 76.6709 43.7017 76.123 43.4194C75.5752 43.1372 75.1602 42.772 74.8779 42.3237C74.5957 41.8755 74.4546 41.4023 74.4546 40.9043H75.9985C76.0207 41.3249 76.1424 41.6597 76.3638 41.9087C76.5851 42.1522 76.8563 42.3265 77.1772 42.4316C77.4982 42.5312 77.8164 42.5811 78.1318 42.5811C78.5524 42.5811 78.9038 42.5257 79.186 42.415C79.4738 42.3044 79.6924 42.1522 79.8418 41.9585C79.9912 41.7648 80.0659 41.5435 80.0659 41.2944ZM85.2871 34.6953V43.6768H83.7432V34.6953H85.2871ZM83.627 32.313C83.627 32.064 83.7017 31.8537 83.8511 31.6821C84.006 31.5106 84.2329 31.4248 84.5317 31.4248C84.825 31.4248 85.0492 31.5106 85.2041 31.6821C85.3646 31.8537 85.4448 32.064 85.4448 32.313C85.4448 32.5509 85.3646 32.7557 85.2041 32.9272C85.0492 33.0933 84.825 33.1763 84.5317 33.1763C84.2329 33.1763 84.006 33.0933 83.8511 32.9272C83.7017 32.7557 83.627 32.5509 83.627 32.313ZM89.2798 36.48V43.6768H87.7358V34.6953H89.1968L89.2798 36.48ZM88.9644 38.8457L88.2505 38.8208C88.256 38.2065 88.3363 37.6393 88.4912 37.1191C88.6462 36.5934 88.8758 36.1369 89.1802 35.7495C89.4845 35.3621 89.8636 35.0633 90.3174 34.853C90.7712 34.6372 91.2969 34.5293 91.8945 34.5293C92.3151 34.5293 92.7025 34.5902 93.0566 34.7119C93.4108 34.8281 93.7179 35.0135 93.978 35.2681C94.2381 35.5226 94.4401 35.8491 94.584 36.2476C94.7279 36.646 94.7998 37.1274 94.7998 37.6919V43.6768H93.2642V37.7666C93.2642 37.2962 93.1839 36.9199 93.0234 36.6377C92.8685 36.3555 92.6471 36.1507 92.3594 36.0234C92.0716 35.8906 91.734 35.8242 91.3467 35.8242C90.8929 35.8242 90.5138 35.9045 90.2095 36.0649C89.9051 36.2254 89.6616 36.4468 89.479 36.729C89.2964 37.0112 89.1636 37.335 89.0806 37.7002C89.0031 38.0599 88.9644 38.4417 88.9644 38.8457ZM94.7832 37.999L93.7539 38.3145C93.7594 37.8219 93.8397 37.3488 93.9946 36.895C94.1551 36.4412 94.3848 36.0373 94.6836 35.6831C94.988 35.3289 95.3615 35.0495 95.8042 34.8447C96.2469 34.6344 96.7533 34.5293 97.3232 34.5293C97.8047 34.5293 98.2308 34.5929 98.6016 34.7202C98.9779 34.8475 99.2933 35.0439 99.5479 35.3096C99.8079 35.5697 100.004 35.9045 100.137 36.314C100.27 36.7235 100.336 37.2104 100.336 37.7749V43.6768H98.7925V37.7583C98.7925 37.2547 98.7122 36.8646 98.5518 36.5879C98.3968 36.3057 98.1755 36.1092 97.8877 35.9985C97.6055 35.8823 97.2679 35.8242 96.875 35.8242C96.5374 35.8242 96.2386 35.8823 95.9785 35.9985C95.7184 36.1147 95.4998 36.2752 95.3228 36.48C95.1457 36.6792 95.0101 36.9089 94.916 37.1689C94.8275 37.429 94.7832 37.7057 94.7832 37.999ZM104.196 36.4219V47.1299H102.652V34.6953H104.063L104.196 36.4219ZM110.248 39.1113V39.2856C110.248 39.9386 110.17 40.5446 110.015 41.1035C109.86 41.6569 109.633 42.1383 109.334 42.5479C109.041 42.9574 108.679 43.2756 108.247 43.5024C107.815 43.7293 107.32 43.8428 106.761 43.8428C106.191 43.8428 105.688 43.7487 105.25 43.5605C104.813 43.3724 104.443 43.0985 104.138 42.7388C103.834 42.3791 103.59 41.9474 103.408 41.4438C103.231 40.9403 103.109 40.373 103.042 39.7422V38.8125C103.109 38.1484 103.233 37.5535 103.416 37.0278C103.599 36.5021 103.839 36.0539 104.138 35.6831C104.443 35.3068 104.811 35.0218 105.242 34.8281C105.674 34.6289 106.172 34.5293 106.736 34.5293C107.301 34.5293 107.802 34.64 108.239 34.8613C108.676 35.0771 109.044 35.387 109.343 35.791C109.642 36.195 109.866 36.6792 110.015 37.2437C110.17 37.8026 110.248 38.4251 110.248 39.1113ZM108.704 39.2856V39.1113C108.704 38.6631 108.657 38.2425 108.562 37.8496C108.468 37.4512 108.322 37.1025 108.123 36.8037C107.929 36.4993 107.68 36.2614 107.375 36.0898C107.071 35.9128 106.709 35.8242 106.288 35.8242C105.901 35.8242 105.563 35.8906 105.275 36.0234C104.993 36.1562 104.752 36.3361 104.553 36.563C104.354 36.7843 104.191 37.0389 104.063 37.3267C103.942 37.6089 103.85 37.9022 103.79 38.2065V40.3564C103.9 40.7438 104.055 41.109 104.254 41.4521C104.454 41.7897 104.719 42.0636 105.051 42.2739C105.383 42.4787 105.801 42.5811 106.305 42.5811C106.72 42.5811 107.077 42.4953 107.375 42.3237C107.68 42.1466 107.929 41.9059 108.123 41.6016C108.322 41.2972 108.468 40.9486 108.562 40.5557C108.657 40.1572 108.704 39.7339 108.704 39.2856ZM113.875 30.9268V43.6768H112.331V30.9268H113.875ZM120.067 43.8428C119.442 43.8428 118.875 43.7376 118.366 43.5273C117.862 43.3115 117.428 43.0099 117.062 42.6226C116.703 42.2352 116.426 41.7759 116.232 41.2446C116.039 40.7134 115.942 40.1323 115.942 39.5015V39.1528C115.942 38.4224 116.05 37.7721 116.266 37.2021C116.481 36.6266 116.775 36.1396 117.146 35.7412C117.516 35.3428 117.937 35.0412 118.407 34.8364C118.878 34.6317 119.365 34.5293 119.868 34.5293C120.51 34.5293 121.063 34.64 121.528 34.8613C121.999 35.0827 122.383 35.3926 122.682 35.791C122.981 36.1839 123.202 36.6488 123.346 37.1855C123.49 37.7168 123.562 38.2979 123.562 38.9287V39.6177H116.855V38.3643H122.026V38.248C122.004 37.8496 121.921 37.4622 121.777 37.0859C121.639 36.7096 121.418 36.3997 121.113 36.1562C120.809 35.9128 120.394 35.791 119.868 35.791C119.52 35.791 119.199 35.8657 118.905 36.0151C118.612 36.159 118.36 36.3748 118.15 36.6626C117.94 36.9504 117.776 37.3018 117.66 37.7168C117.544 38.1318 117.486 38.6105 117.486 39.1528V39.5015C117.486 39.9276 117.544 40.3288 117.66 40.7051C117.782 41.0758 117.956 41.4023 118.183 41.6846C118.416 41.9668 118.695 42.1882 119.021 42.3486C119.354 42.5091 119.73 42.5894 120.15 42.5894C120.693 42.5894 121.152 42.4787 121.528 42.2573C121.905 42.036 122.234 41.7399 122.516 41.3691L123.446 42.1079C123.252 42.4012 123.006 42.6807 122.707 42.9463C122.408 43.2119 122.04 43.4277 121.603 43.5938C121.171 43.7598 120.66 43.8428 120.067 43.8428ZM134.868 42.1411V37.5176C134.868 37.1634 134.796 36.8563 134.652 36.5962C134.514 36.3306 134.303 36.1258 134.021 35.9819C133.739 35.8381 133.39 35.7661 132.975 35.7661C132.588 35.7661 132.247 35.8325 131.954 35.9653C131.666 36.0981 131.439 36.2725 131.273 36.4883C131.113 36.7041 131.033 36.9365 131.033 37.1855H129.497C129.497 36.8646 129.58 36.5464 129.746 36.231C129.912 35.9155 130.15 35.6305 130.46 35.376C130.775 35.1159 131.152 34.9111 131.589 34.7617C132.032 34.6068 132.524 34.5293 133.066 34.5293C133.719 34.5293 134.295 34.64 134.793 34.8613C135.297 35.0827 135.689 35.4175 135.972 35.8657C136.259 36.3084 136.403 36.8646 136.403 37.5342V41.7178C136.403 42.0166 136.428 42.3348 136.478 42.6724C136.533 43.0099 136.614 43.3005 136.719 43.5439V43.6768H135.117C135.039 43.4997 134.978 43.2645 134.934 42.9712C134.89 42.6724 134.868 42.3957 134.868 42.1411ZM135.133 38.2314L135.15 39.3105H133.598C133.16 39.3105 132.77 39.3465 132.427 39.4185C132.084 39.4849 131.796 39.5872 131.564 39.7256C131.332 39.8639 131.154 40.0382 131.033 40.2485C130.911 40.4533 130.85 40.694 130.85 40.9707C130.85 41.2529 130.914 41.5103 131.041 41.7427C131.168 41.9751 131.359 42.1605 131.614 42.2988C131.874 42.4316 132.192 42.498 132.568 42.498C133.039 42.498 133.454 42.3984 133.813 42.1992C134.173 42 134.458 41.7565 134.668 41.4688C134.884 41.181 135 40.9015 135.017 40.6304L135.673 41.3691C135.634 41.6016 135.529 41.8589 135.357 42.1411C135.186 42.4233 134.956 42.6945 134.668 42.9546C134.386 43.2091 134.049 43.4222 133.656 43.5938C133.268 43.7598 132.831 43.8428 132.344 43.8428C131.736 43.8428 131.201 43.7238 130.742 43.4858C130.288 43.2479 129.934 42.9297 129.68 42.5312C129.431 42.1273 129.306 41.6763 129.306 41.1782C129.306 40.6968 129.4 40.2734 129.588 39.9082C129.777 39.5374 130.048 39.2303 130.402 38.9868C130.756 38.7378 131.182 38.5496 131.68 38.4224C132.178 38.2951 132.734 38.2314 133.349 38.2314H135.133ZM140.354 36.6128V43.6768H138.819V34.6953H140.271L140.354 36.6128ZM139.989 38.8457L139.35 38.8208C139.356 38.2065 139.447 37.6393 139.624 37.1191C139.801 36.5934 140.05 36.1369 140.371 35.7495C140.692 35.3621 141.074 35.0633 141.517 34.853C141.965 34.6372 142.46 34.5293 143.002 34.5293C143.445 34.5293 143.844 34.5902 144.198 34.7119C144.552 34.8281 144.854 35.0163 145.103 35.2764C145.357 35.5365 145.551 35.874 145.684 36.2891C145.816 36.6986 145.883 37.1994 145.883 37.7915V43.6768H144.339V37.7749C144.339 37.3045 144.27 36.9282 144.131 36.646C143.993 36.3582 143.791 36.1507 143.525 36.0234C143.26 35.8906 142.933 35.8242 142.546 35.8242C142.164 35.8242 141.815 35.9045 141.5 36.0649C141.19 36.2254 140.922 36.4468 140.695 36.729C140.473 37.0112 140.299 37.335 140.172 37.7002C140.05 38.0599 139.989 38.4417 139.989 38.8457ZM153.876 41.9336V30.9268H155.42V43.6768H154.009L153.876 41.9336ZM147.833 39.2856V39.1113C147.833 38.4251 147.917 37.8026 148.083 37.2437C148.254 36.6792 148.495 36.195 148.805 35.791C149.12 35.387 149.494 35.0771 149.925 34.8613C150.362 34.64 150.849 34.5293 151.386 34.5293C151.951 34.5293 152.443 34.6289 152.864 34.8281C153.29 35.0218 153.65 35.3068 153.943 35.6831C154.242 36.0539 154.477 36.5021 154.648 37.0278C154.82 37.5535 154.939 38.1484 155.005 38.8125V39.5762C154.944 40.2347 154.826 40.8268 154.648 41.3525C154.477 41.8783 154.242 42.3265 153.943 42.6973C153.65 43.068 153.29 43.353 152.864 43.5522C152.438 43.7459 151.94 43.8428 151.37 43.8428C150.844 43.8428 150.362 43.7293 149.925 43.5024C149.494 43.2756 149.12 42.9574 148.805 42.5479C148.495 42.1383 148.254 41.6569 148.083 41.1035C147.917 40.5446 147.833 39.9386 147.833 39.2856ZM149.377 39.1113V39.2856C149.377 39.7339 149.422 40.1545 149.51 40.5474C149.604 40.9403 149.748 41.2861 149.942 41.585C150.136 41.8838 150.382 42.119 150.681 42.2905C150.979 42.4565 151.336 42.5396 151.751 42.5396C152.261 42.5396 152.678 42.4316 153.005 42.2158C153.337 42 153.603 41.715 153.802 41.3608C154.001 41.0067 154.156 40.6221 154.267 40.207V38.2065C154.2 37.9022 154.103 37.6089 153.976 37.3267C153.854 37.0389 153.694 36.7843 153.495 36.563C153.301 36.3361 153.06 36.1562 152.772 36.0234C152.49 35.8906 152.155 35.8242 151.768 35.8242C151.347 35.8242 150.985 35.9128 150.681 36.0898C150.382 36.2614 150.136 36.4993 149.942 36.8037C149.748 37.1025 149.604 37.4512 149.51 37.8496C149.422 38.2425 149.377 38.6631 149.377 39.1113ZM164.319 43.6768H162.783V33.749C162.783 33.1016 162.899 32.5565 163.132 32.1138C163.37 31.6655 163.71 31.328 164.153 31.1011C164.596 30.8687 165.121 30.7524 165.73 30.7524C165.907 30.7524 166.084 30.7635 166.261 30.7856C166.444 30.8078 166.621 30.841 166.792 30.8853L166.709 32.1387C166.593 32.111 166.46 32.0916 166.311 32.0806C166.167 32.0695 166.023 32.064 165.879 32.064C165.553 32.064 165.271 32.1304 165.033 32.2632C164.8 32.3905 164.623 32.5786 164.501 32.8276C164.38 33.0767 164.319 33.3838 164.319 33.749V43.6768ZM166.228 34.6953V35.874H161.364V34.6953H166.228ZM173.234 42.1411V37.5176C173.234 37.1634 173.162 36.8563 173.018 36.5962C172.88 36.3306 172.669 36.1258 172.387 35.9819C172.105 35.8381 171.756 35.7661 171.341 35.7661C170.954 35.7661 170.614 35.8325 170.32 35.9653C170.033 36.0981 169.806 36.2725 169.64 36.4883C169.479 36.7041 169.399 36.9365 169.399 37.1855H167.863C167.863 36.8646 167.946 36.5464 168.112 36.231C168.278 35.9155 168.516 35.6305 168.826 35.376C169.142 35.1159 169.518 34.9111 169.955 34.7617C170.398 34.6068 170.89 34.5293 171.433 34.5293C172.086 34.5293 172.661 34.64 173.159 34.8613C173.663 35.0827 174.056 35.4175 174.338 35.8657C174.626 36.3084 174.77 36.8646 174.77 37.5342V41.7178C174.77 42.0166 174.794 42.3348 174.844 42.6724C174.9 43.0099 174.98 43.3005 175.085 43.5439V43.6768H173.483C173.405 43.4997 173.345 43.2645 173.3 42.9712C173.256 42.6724 173.234 42.3957 173.234 42.1411ZM173.5 38.2314L173.516 39.3105H171.964C171.527 39.3105 171.137 39.3465 170.793 39.4185C170.45 39.4849 170.163 39.5872 169.93 39.7256C169.698 39.8639 169.521 40.0382 169.399 40.2485C169.277 40.4533 169.216 40.694 169.216 40.9707C169.216 41.2529 169.28 41.5103 169.407 41.7427C169.535 41.9751 169.725 42.1605 169.98 42.2988C170.24 42.4316 170.558 42.498 170.935 42.498C171.405 42.498 171.82 42.3984 172.18 42.1992C172.539 42 172.824 41.7565 173.035 41.4688C173.25 41.181 173.367 40.9015 173.383 40.6304L174.039 41.3691C174 41.6016 173.895 41.8589 173.724 42.1411C173.552 42.4233 173.322 42.6945 173.035 42.9546C172.752 43.2091 172.415 43.4222 172.022 43.5938C171.635 43.7598 171.197 43.8428 170.71 43.8428C170.102 43.8428 169.568 43.7238 169.108 43.4858C168.655 43.2479 168.3 42.9297 168.046 42.5312C167.797 42.1273 167.672 41.6763 167.672 41.1782C167.672 40.6968 167.766 40.2734 167.955 39.9082C168.143 39.5374 168.414 39.2303 168.768 38.9868C169.122 38.7378 169.548 38.5496 170.046 38.4224C170.544 38.2951 171.101 38.2314 171.715 38.2314H173.5ZM178.854 34.6953V43.6768H177.31V34.6953H178.854ZM177.193 32.313C177.193 32.064 177.268 31.8537 177.417 31.6821C177.572 31.5106 177.799 31.4248 178.098 31.4248C178.391 31.4248 178.616 31.5106 178.771 31.6821C178.931 31.8537 179.011 32.064 179.011 32.313C179.011 32.5509 178.931 32.7557 178.771 32.9272C178.616 33.0933 178.391 33.1763 178.098 33.1763C177.799 33.1763 177.572 33.0933 177.417 32.9272C177.268 32.7557 177.193 32.5509 177.193 32.313ZM182.854 36.1064V43.6768H181.319V34.6953H182.813L182.854 36.1064ZM185.66 34.6455L185.652 36.0732C185.525 36.0456 185.403 36.029 185.287 36.0234C185.176 36.0124 185.049 36.0068 184.905 36.0068C184.551 36.0068 184.238 36.0622 183.967 36.1729C183.696 36.2835 183.466 36.4385 183.278 36.6377C183.09 36.8369 182.94 37.0749 182.83 37.3516C182.724 37.6227 182.655 37.9215 182.622 38.248L182.19 38.4971C182.19 37.9548 182.243 37.4456 182.348 36.9697C182.459 36.4938 182.628 36.0732 182.854 35.708C183.081 35.3372 183.369 35.0495 183.718 34.8447C184.072 34.6344 184.493 34.5293 184.979 34.5293C185.09 34.5293 185.217 34.5431 185.361 34.5708C185.505 34.5929 185.605 34.6178 185.66 34.6455Z" fill="white"/>
</svg>
