<svg width="165" height="72" viewBox="0 0 165 72" fill="none" xmlns="http://www.w3.org/2000/svg">
<path d="M64.2847 29.8685C64.9609 29.3088 65.6007 28.7064 66.2002 28.0651C67.3814 26.9055 68.5743 25.7554 69.7789 24.6149C70.6664 23.7722 71.5827 22.9551 72.4734 22.1157C72.6986 21.8841 72.9107 21.6401 73.1087 21.3848C73.4629 21.0181 73.9187 20.7657 74.4176 20.6603C75.8608 20.2493 77.2715 19.7319 78.6381 19.1123C79.6341 18.6526 80.6206 18.1739 81.5847 17.6472C83.1275 16.8345 84.5229 15.7685 85.7126 14.4938C86.4564 13.6799 87.8356 11.2095 87.8867 11.1456C87.9728 11.006 88.1094 10.9049 88.2681 10.8633C88.4268 10.8217 88.5955 10.8428 88.7391 10.9222C89.1375 11.0799 89.4829 11.3475 89.735 11.6939C89.9871 12.0403 90.1355 12.4512 90.1629 12.8787C90.2501 13.6235 90.221 14.3772 90.0767 15.113C89.9249 15.9524 89.6775 16.7716 89.3392 17.5547C88.8368 18.7567 88.122 19.8584 87.229 20.8071C86.8342 21.2048 86.3925 21.5531 85.9137 21.8444C84.6655 22.6487 83.3821 23.402 82.1338 24.2063C81.8409 24.4348 81.5762 24.6973 81.3453 24.9883C81.1537 25.1926 80.9781 25.416 80.7706 25.6617C84.3143 26.4342 87.8675 26.7086 91.4239 26.9161C91.4255 26.9406 91.4255 26.9651 91.4239 26.9895C91.2803 26.9895 91.1366 26.9895 90.9929 26.9895C90.0352 27.0502 89.103 27.1108 88.158 27.1778C87.3184 27.2353 86.4788 27.3055 85.636 27.3661C85.189 27.3949 84.7389 27.3917 84.2951 27.4396C83.3023 27.5385 82.3796 27.8034 81.7922 28.7163C81.5892 29.0094 81.4527 29.3433 81.3922 29.6947C81.3318 30.0461 81.3488 30.4065 81.4422 30.7506C81.5355 31.0947 81.7029 31.4143 81.9327 31.687C82.1624 31.9597 82.449 32.1789 82.7723 32.3293C82.8713 32.374 82.9639 32.4315 83.1139 32.5113C82.1913 32.9166 81.4187 33.4369 81.1984 34.4263C81.0888 34.8804 81.0832 35.3534 81.1822 35.8099C81.2812 36.2665 81.4821 36.6947 81.7699 37.0627C81.4219 37.1904 81.0867 37.2893 80.7738 37.4361C80.2638 37.679 79.847 38.0815 79.5866 38.5826C79.3261 39.0838 79.2364 39.6562 79.3308 40.213C79.373 40.6265 79.4972 41.0275 79.6962 41.3925C79.8952 41.7575 80.1649 42.0791 80.4897 42.3387L80.5887 42.4249C80.404 42.6698 80.2376 42.928 80.0906 43.1973C79.8713 43.6426 79.7618 44.134 79.7714 44.6304H80.6557C80.6557 44.5857 80.6557 44.5442 80.6557 44.5027C80.6378 44.0799 80.7664 43.664 81.0196 43.3249C81.1324 43.1791 81.2834 43.0676 81.456 43.0027C81.6285 42.9379 81.8157 42.9224 81.9965 42.9579C82.7372 43.0632 83.4779 43.1685 84.2153 43.2771C84.8538 43.3696 85.4668 43.4813 86.0925 43.5739C86.4469 43.6282 86.8044 43.6473 87.1588 43.708C87.8931 43.8324 88.6241 43.9761 89.3584 44.1133L91.2547 44.4612L92.1263 44.6272H96.2158C98.4964 44.623 100.682 43.7154 102.295 42.1031C103.908 40.4909 104.815 38.3054 104.82 36.0254V8.61775C104.82 6.33439 103.913 4.14437 102.299 2.52859C100.686 0.912815 98.4965 0.00338275 96.2126 0L92.4296 0C91.9922 1.02775 90.6067 2.46404 88.8891 3.98332C86.4181 6.16329 84.1962 7.68895 83.43 6.8559L83.0309 6.40586C82.2775 5.55366 83.912 3.35135 86.3926 1.15861C86.8651 0.737296 87.3503 0.347902 87.7973 0H68.7861C66.5033 0.00507168 64.3158 0.915249 62.7034 2.53084C61.0911 4.14643 60.1855 6.3355 60.1855 8.61775V32.0868L60.2622 32.0612C61.7043 31.5337 63.06 30.7947 64.2847 29.8685ZM96.4904 41.2407C96.5159 42.5462 95.6412 43.1558 94.6483 43.6888C94.3433 43.8262 94.0212 43.9217 93.6906 43.9729C93.5142 44.0004 93.3341 43.9928 93.1606 43.9505C92.3051 43.7878 91.4495 43.6058 90.5907 43.4398C89.9905 43.3207 89.3893 43.2143 88.7869 43.1207C87.9633 42.977 87.1428 42.8334 86.3192 42.7057C85.4955 42.5781 84.6016 42.4664 83.7428 42.3483C83.0852 42.2557 82.4148 42.211 81.7731 42.0546C81.4369 41.9691 81.128 41.7994 80.8755 41.5615C80.6231 41.3236 80.4354 41.0254 80.3301 40.6949C80.1491 40.2415 80.1233 39.741 80.2566 39.2714C80.349 38.9661 80.523 38.6918 80.7599 38.478C80.9967 38.2643 81.2875 38.1192 81.6007 38.0585C82.2271 37.8999 82.8867 37.9333 83.4938 38.1543C84.0717 38.333 84.6623 38.4735 85.2465 38.6267C86.0286 38.8405 86.8012 39.1054 87.5962 39.265C88.1798 39.36 88.7703 39.4069 89.3616 39.4055C90.0544 39.4342 90.7503 39.4055 91.4463 39.447C92.9244 39.4948 94.4057 39.5619 95.8838 39.6097C95.9828 39.6058 96.0803 39.6351 96.1607 39.6929C96.2411 39.7507 96.2999 39.8338 96.3276 39.9289C96.5065 40.3415 96.563 40.7969 96.4904 41.2407ZM98.3293 36.3861C98.3293 37.5319 97.5695 38.1511 96.5926 38.5852C96.181 38.7195 95.7442 38.7577 95.3156 38.6969C93.4001 38.6394 91.4622 38.5565 89.534 38.4894C89.2594 38.4894 88.9817 38.4894 88.7039 38.4894C87.9409 38.5118 87.2386 38.2277 86.5171 38.0522C85.8786 37.8926 85.2241 37.6979 84.5761 37.5223C84.1738 37.4138 83.762 37.3244 83.3693 37.2031C83.1186 37.1129 82.889 36.9723 82.6947 36.7901C82.5003 36.6079 82.3453 36.3878 82.2392 36.1435C82.0946 35.8806 82.0089 35.5895 81.988 35.2903C81.967 34.991 82.0114 34.6908 82.1179 34.4104C82.3336 33.9646 82.7151 33.621 83.181 33.4528C84.0801 33.0405 85.0911 32.9394 86.0542 33.1656C86.549 33.2677 87.0566 33.3188 87.561 33.3954C88.4968 33.4874 89.4383 33.5045 90.3768 33.4464C91.0504 33.4464 91.7208 33.4464 92.3944 33.4241C93.0681 33.4018 93.7385 33.3954 94.4089 33.3826L95.2166 33.3635C95.6795 33.3635 96.1424 33.3635 96.6053 33.3379C96.7834 33.3231 96.9602 33.3793 97.097 33.4943C97.531 33.8321 97.8718 34.2749 98.0874 34.7808C98.303 35.2867 98.3862 35.8391 98.3293 36.3861ZM93.7832 27.6981C94.1854 27.6726 94.5877 27.6566 94.9867 27.5991C95.2795 27.5832 95.5683 27.6726 95.8008 27.8513C96.425 28.1707 96.929 28.6835 97.2374 29.3131C97.5166 29.8996 97.5645 30.5697 97.3715 31.1899C97.263 31.5442 97.1225 31.8889 96.998 32.24C96.9768 32.3112 96.9314 32.3729 96.8696 32.4142C96.8079 32.4556 96.7336 32.4741 96.6596 32.4666C95.9126 32.4666 95.1655 32.4666 94.4249 32.4889C93.3266 32.4889 92.2284 32.5208 91.1302 32.5432L88.1325 32.6102C87.1524 32.4442 86.1116 32.291 85.0773 32.09C84.5491 31.9917 84.0285 31.8563 83.5194 31.6846C83.2777 31.6268 83.0517 31.5165 82.8574 31.3614C82.6632 31.2064 82.5055 31.0105 82.3956 30.7877C82.2157 30.3834 82.2033 29.9243 82.3613 29.5109C82.5193 29.0975 82.8347 28.7636 83.2384 28.5822C83.7376 28.3813 84.271 28.2794 84.8091 28.2822L86.5969 28.1673L88.6976 28.0332C89.6361 27.9694 90.5715 27.8992 91.5101 27.8385C92.2636 27.7875 93.0234 27.7492 93.7832 27.6981Z" fill="white"/>
<path d="M83.5628 5.22172C83.8023 5.49302 85.6252 4.26419 87.6332 2.49596C88.5271 1.72268 89.3666 0.888714 90.1457 0L88.4314 0C87.8791 0.402162 87.2725 0.884117 86.6563 1.42672C84.661 3.19176 83.3234 4.95361 83.5628 5.22172Z" fill="white"/>
<path d="M7.45443 64.2437C7.46319 64.6996 7.42575 65.1551 7.3427 65.6034C7.31418 65.7945 7.22848 65.9726 7.09688 66.1141C6.95247 66.2054 6.78166 66.2459 6.61162 66.229C6.04974 66.229 5.93801 66.0343 5.89012 65.9481C5.75284 65.7056 5.58683 65.214 5.58683 64.2437V62.6159H0V64.6459C0.00817509 65.6046 0.159904 66.5568 0.450139 67.4706C0.813121 68.585 1.50547 69.5632 2.43586 70.2762C3.45107 71.0964 4.86534 71.5114 6.63716 71.5114C9.29011 71.5114 11.0651 70.6528 11.9175 68.958C12.6989 67.3043 13.0837 65.4912 13.0413 63.6628V51.3873H7.45443V64.2437Z" fill="white"/>
<path d="M29.804 65.546C29.9123 64.8211 29.9678 64.0893 29.97 63.3564V51.3873H24.3832V62.6734C24.4005 63.4131 24.3178 64.1517 24.1374 64.8693C24.0441 65.2731 23.8195 65.6345 23.4989 65.8971C23.1006 66.1497 22.6318 66.2683 22.1612 66.2354C21.6877 66.2692 21.216 66.1482 20.8172 65.8907C20.4965 65.6228 20.2723 65.2573 20.1787 64.8502C20.002 64.1385 19.9204 63.4065 19.9361 62.6734V51.3873H14.3301V63.3564C14.3301 68.693 17.0341 71.5114 22.1485 71.5114C23.8884 71.5114 25.3409 71.1922 26.436 70.5538C27.4634 69.9957 28.3139 69.1609 28.891 68.1441C29.3443 67.3378 29.6533 66.4585 29.804 65.546Z" fill="white"/>
<path d="M44.2706 69.5101C45.4746 68.1932 46.1221 66.4615 46.0776 64.6778C46.1255 63.4979 45.8162 62.331 45.1901 61.3297C44.5805 60.4518 43.7364 59.7628 42.7542 59.3412C41.6051 58.8542 40.4091 58.4863 39.185 58.2432C38.4599 58.1018 37.7531 57.8791 37.078 57.5793C36.9152 57.4996 36.7587 57.3847 36.7587 56.941C36.7569 56.8406 36.7787 56.7411 36.8225 56.6507C36.8664 56.5603 36.9309 56.4815 37.0109 56.4207C37.0812 56.3569 37.3844 56.1526 38.3071 56.1526C40.0406 56.1526 40.1012 56.8676 40.1332 57.2506L40.2066 58.0836H45.5285L45.5125 57.1548C45.5125 56.9889 45.5125 56.8357 45.4838 56.6633H50.2438V71.0039H55.8306V56.6633H60.6576V51.3873H45.4295V56.1111C45.3118 55.3712 45.0689 54.6566 44.7112 53.9982C44.1566 53.0064 43.3184 52.2029 42.3041 51.6906C41.1371 51.115 39.8472 50.8334 38.5465 50.8703C35.9638 50.8703 34.0547 51.4671 32.8767 52.6417C32.2953 53.2159 31.8374 53.9027 31.5311 54.6601C31.2248 55.4175 31.0765 56.2296 31.0953 57.0463C31.0679 58.01 31.2419 58.9688 31.6061 59.8615C31.9203 60.6098 32.4163 61.2681 33.0491 61.7765C33.5882 62.2005 34.1903 62.5376 34.8337 62.7755C35.3955 62.9798 36.1107 63.1937 37.0684 63.4298C37.9389 63.6426 38.5135 63.7863 38.7923 63.8607C39.0813 63.9414 39.3624 64.0482 39.632 64.1799C39.8737 64.2936 40.0857 64.4618 40.2513 64.6714C40.3804 64.8583 40.4434 65.083 40.4301 65.3098C40.4301 65.5843 40.4301 66.229 38.4922 66.229C37.8537 66.229 37.0301 66.1397 36.7013 65.7024C36.3869 65.3089 36.2148 64.8207 36.2128 64.3172V63.4043H30.543V64.3299C30.5669 66.0729 31.145 67.7631 32.1935 69.1559C33.3332 70.7198 35.4243 71.5114 38.4092 71.5114C41.0813 71.5114 43.0479 70.8379 44.2706 69.5101Z" fill="white"/>
<path d="M80.8559 61.1636C80.8523 59.6854 80.6537 58.2141 80.2653 56.7877C79.8405 55.2267 78.9709 53.8228 77.7624 52.747C76.4854 51.5788 74.6912 50.9819 72.4501 50.9819H64.9062V71.4092H72.1213C76.1055 71.3996 80.8559 69.625 80.8559 61.1636ZM74.2602 64.9108C73.759 65.6193 72.9449 65.9641 71.7669 65.9641H70.3686V56.4207H71.9872C72.8428 56.4207 75.1094 56.4207 75.1094 61.2466C75.1094 62.8776 74.8221 64.1128 74.2602 64.9108Z" fill="white"/>
<path d="M96.4456 68.5781C97.1481 67.537 97.6575 66.378 97.9492 65.1565C98.5622 62.546 98.5622 59.8291 97.9492 57.2186C97.6587 55.9967 97.1493 54.8375 96.4456 53.7971C95.7379 52.7634 94.7861 51.9204 93.6745 51.3426C92.4442 50.7299 91.0837 50.4244 89.7095 50.4521C88.2046 50.4066 86.7164 50.7777 85.4092 51.5245C84.2775 52.201 83.3378 53.1559 82.6796 54.2982C82.0637 55.3669 81.6199 56.5258 81.3643 57.7325C80.8812 60.0084 80.8812 62.3604 81.3643 64.6363C81.6198 65.8444 82.0648 67.0046 82.6828 68.0738C83.3444 69.2184 84.2872 70.1752 85.422 70.8538C86.7238 71.6029 88.208 71.9763 89.7095 71.9326C91.0887 71.962 92.4542 71.6541 93.6873 71.0358C94.7956 70.4569 95.7433 69.6125 96.4456 68.5781ZM91.7079 65.53C91.457 65.8197 91.1487 66.0544 90.8025 66.2192C90.4564 66.384 90.0799 66.4753 89.6967 66.4875C89.2028 66.4916 88.7179 66.3555 88.2984 66.0949C87.8961 65.8523 87.5418 65.3576 87.2481 64.6267C86.9288 63.8192 86.7532 62.6606 86.7532 61.1828C86.7532 59.2071 87.0437 57.79 87.6184 56.9665C87.8392 56.6193 88.1475 56.3362 88.5122 56.1457C88.877 55.9553 89.2855 55.8641 89.6967 55.8813C90.1951 55.8771 90.6849 56.012 91.111 56.2707C91.5132 56.5069 91.8676 56.9984 92.1677 57.7261C92.4869 58.5336 92.6625 59.6954 92.6625 61.1828C92.6625 63.9724 92.1453 65.0863 91.7079 65.53Z" fill="white"/>
<path d="M102.998 50.9692V70.9528H115.503V65.6003H108.412V50.9692H102.998Z" fill="white"/>
<path d="M130.614 65.3927C130.718 64.6524 130.771 63.906 130.774 63.1585V50.9692H125.347V62.4595C125.363 63.2198 125.282 63.9791 125.107 64.7193C125.015 65.1333 124.791 65.5062 124.469 65.7821C124.106 66.0233 123.674 66.1357 123.24 66.1013C122.802 66.1329 122.367 66.0134 122.007 65.763C121.689 65.481 121.471 65.1037 121.385 64.6873C121.216 63.955 121.137 63.2046 121.152 62.4531V50.9628H115.725V63.1617C115.725 70.024 119.805 71.4602 123.227 71.4602C124.903 71.4602 126.295 71.1219 127.377 70.4612C128.373 69.8751 129.186 69.0229 129.724 68.0004C130.162 67.1859 130.462 66.3049 130.614 65.3927Z" fill="white"/>
<path d="M142.243 63.516C142.168 64.2033 141.923 64.8612 141.531 65.4311C141.337 65.7183 140.963 66.0982 139.954 66.0982C139.684 66.1081 139.415 66.0644 139.162 65.9696C138.908 65.8748 138.677 65.7309 138.479 65.546C138.001 65.0641 137.658 64.4654 137.483 63.8097C137.234 62.9349 137.112 62.0286 137.123 61.119C137.106 59.7636 137.339 58.4167 137.809 57.1453C138.167 56.1877 138.795 55.7824 139.843 55.7824C140.842 55.7824 141.889 56.0601 142.112 58.1315L142.199 58.9486H147.492L147.453 57.9911C147.41 56.7403 147.117 55.5109 146.591 54.3748C146.034 53.186 145.139 52.1871 144.018 51.5022C142.863 50.7745 141.397 50.4075 139.664 50.4075C137.627 50.4075 135.954 50.9628 134.7 52.064C133.466 53.152 132.572 54.5728 132.126 56.1558C131.647 57.8152 131.41 59.5354 131.424 61.2626C131.385 62.9025 131.618 64.5375 132.114 66.1014C132.501 67.3279 133.177 68.4441 134.083 69.3569C134.853 70.1124 135.787 70.6794 136.813 71.0135C137.785 71.3204 138.798 71.4754 139.817 71.4731C141.733 71.4731 143.303 71.023 144.462 70.1325C145.53 69.3458 146.357 68.277 146.85 67.0461C147.266 65.9771 147.533 64.8558 147.642 63.7139L147.728 62.7181H142.336L142.243 63.516Z" fill="white"/>
<path d="M157.912 59.4785L164.824 50.9692H157.982L153.506 56.6442V50.9692H148.092V70.9528H153.506V64.614L154.183 63.7937L158.356 70.9528H164.999L157.912 59.4785Z" fill="white"/>
</svg>
