<svg width="18" height="15" viewBox="0 0 18 15" fill="none" xmlns="http://www.w3.org/2000/svg">
<path d="M17.4823 2.59498C16.8606 2.86614 16.1982 3.04587 15.5075 3.13314C16.218 2.71134 16.7603 2.04851 17.0153 1.24959C16.3528 1.6423 15.6214 1.91969 14.842 2.07448C14.213 1.40854 13.3165 0.996094 12.3385 0.996094C10.441 0.996094 8.91346 2.52745 8.91346 4.40477C8.91346 4.67488 8.93645 4.93461 8.99287 5.18187C6.14355 5.0437 3.62232 3.68584 1.92861 1.61736C1.63292 2.12747 1.45948 2.71134 1.45948 3.33988C1.45948 4.52008 2.07071 5.56627 2.98183 6.17195C2.43119 6.16157 1.891 6.00261 1.43335 5.75223C1.43335 5.76262 1.43335 5.77613 1.43335 5.78963C1.43335 7.44566 2.62135 8.82118 4.17923 9.13805C3.90025 9.21389 3.5962 9.25025 3.28065 9.25025C3.06124 9.25025 2.83973 9.23779 2.6318 9.19207C3.07586 10.5416 4.33596 11.5338 5.83428 11.566C4.66822 12.473 3.18766 13.0194 1.58486 13.0194C1.30379 13.0194 1.03422 13.007 0.764648 12.9727C2.28282 13.9461 4.08206 14.502 6.02235 14.502C12.3291 14.502 15.7771 9.30739 15.7771 4.80475C15.7771 4.6541 15.7719 4.50866 15.7646 4.36425C16.4448 3.88427 17.0163 3.28482 17.4823 2.59498Z" fill="white"/>
</svg>
