<svg width="12" height="18" viewBox="0 0 12 18" fill="none" xmlns="http://www.w3.org/2000/svg">
<path d="M9.91645 9.84739L9.91577 9.84788L9.9102 9.85182L9.89283 9.86387C9.87851 9.87369 9.85868 9.887 9.8335 9.90331C9.78314 9.93591 9.71127 9.98052 9.61894 10.0331C9.4344 10.1381 9.1674 10.2752 8.82653 10.4114C8.14497 10.6838 7.16416 10.9543 5.95615 10.9543C4.74776 10.9543 3.76695 10.6839 3.08545 10.4114C2.74462 10.2752 2.47767 10.138 2.29318 10.033C2.20088 9.98047 2.12902 9.93586 2.07868 9.90325C2.0535 9.88694 2.03369 9.87362 2.01936 9.8638L2.002 9.85175L1.99643 9.84781L1.99473 9.84659L1.99443 9.84637L1.99363 9.8458L1.99327 9.84554C1.99311 9.84543 1.99296 9.84531 2.28575 9.44001C1.24625 8.69597 0.461668 9.12787 0.174992 9.63987L9.91645 9.84739ZM9.91645 9.84739C9.91662 9.84727 9.91679 9.84715 9.91696 9.84703C10.3485 9.54006 10.6624 9.51656 10.8577 9.55895C11.0618 9.60327 11.2161 9.7361 11.3 9.88094C11.3923 10.0562 11.4109 10.1644 11.4095 10.2288C11.4082 10.2845 11.3915 10.3471 11.3245 10.4359C11.1603 10.6537 10.8039 10.898 10.1509 11.2814L10.0979 11.3124C9.14019 11.8436 7.80748 12.0712 6.87619 12.1594L6.89468 12.3545C6.71894 12.4446 6.53671 12.6194 6.51685 12.9529C6.53781 12.9783 6.564 13.0058 6.56764 13.0093L6.57232 13.0137L6.57425 13.0155L6.57818 13.0191L6.58724 13.0274L6.75072 13.1758L6.75173 13.1757L7.06354 13.4575L8.34854 14.619L8.6916 14.9292C9.51221 15.671 10.276 16.3615 10.3466 16.425C10.5058 16.5742 10.5313 16.7064 10.5198 16.8116C10.506 16.9375 10.4293 17.0908 10.2799 17.2253C9.97105 17.5032 9.55295 17.5524 9.2516 17.2877C8.52369 16.6171 7.46417 15.6563 6.35708 14.6524L6.30077 14.6013L5.96446 14.2963L5.62854 14.6017L2.6796 17.2827C2.38075 17.5451 1.96272 17.4957 1.65306 17.2149C1.5036 17.0795 1.42825 16.9264 1.41539 16.8028C1.4047 16.7001 1.43022 16.5703 1.59257 16.4236L1.59322 16.423L5.25122 13.1063L5.27631 13.0836L5.2773 13.0827L5.2783 13.0818L5.27929 13.0809L5.28198 13.0785L5.29219 13.0692L5.34212 13.024L6.18094 12.2639L5.05417 12.1558C4.11006 12.0651 2.72476 11.8429 1.75387 11.2777C1.10095 10.8963 0.745547 10.653 0.582723 10.4363C0.516623 10.3484 0.5005 10.2867 0.499556 10.2316C0.498452 10.1673 0.517913 10.0583 0.613 9.88106L9.91645 9.84739Z" fill="white" stroke="white"/>
<path d="M10.4719 4.54821C10.4719 6.72944 8.48938 8.58594 5.95474 8.58594C3.41925 8.58594 1.43677 6.72939 1.43677 4.54821C1.43677 2.35584 3.42004 0.5 5.95474 0.5C8.4886 0.5 10.4719 2.35579 10.4719 4.54821ZM8.91886 4.54821C8.91886 2.98776 7.54228 1.80404 5.95474 1.80404L3.49062 4.54821H2.99062C2.99062 4.54831 2.99062 4.54842 2.99062 4.54853C2.99081 6.09978 4.3689 7.2819 5.95474 7.2819C7.5407 7.2819 8.91886 6.09962 8.91886 4.54821Z" fill="white" stroke="white"/>
</svg>
