<svg width="16" height="15" viewBox="0 0 16 15" fill="none" xmlns="http://www.w3.org/2000/svg">
<path d="M11.5075 0.294922H4.69303C2.47519 0.294922 0.670898 1.99565 0.670898 4.08618V10.5096C0.670898 12.6001 2.47519 14.3008 4.69303 14.3008H11.5076C13.7254 14.3008 15.5297 12.6001 15.5297 10.5096V4.08618C15.5297 1.99565 13.7254 0.294922 11.5075 0.294922ZM8.10028 11.1275C5.85999 11.1275 4.03745 9.40954 4.03745 7.29785C4.03745 5.18616 5.85999 3.46823 8.10028 3.46823C10.3406 3.46823 12.1631 5.18616 12.1631 7.29785C12.1631 9.40954 10.3406 11.1275 8.10028 11.1275ZM12.2603 4.37138C11.5982 4.37138 11.0597 3.86381 11.0597 3.23977C11.0597 2.61573 11.5982 2.10806 12.2603 2.10806C12.9223 2.10806 13.4609 2.61573 13.4609 3.23977C13.4609 3.86381 12.9223 4.37138 12.2603 4.37138Z" fill="white"/>
<path d="M8.10016 5.19922C6.87124 5.19922 5.87134 6.14152 5.87134 7.2998C5.87134 8.45802 6.87124 9.40039 8.10016 9.40039C9.32916 9.40039 10.329 8.45802 10.329 7.2998C10.329 6.14152 9.32916 5.19922 8.10016 5.19922Z" fill="white"/>
<path d="M12.2601 2.92969C12.0785 2.92969 11.9307 3.06904 11.9307 3.24023C11.9307 3.41143 12.0785 3.55078 12.2601 3.55078C12.4418 3.55078 12.5896 3.41154 12.5896 3.24023C12.5896 3.06893 12.4418 2.92969 12.2601 2.92969Z" fill="#1C2C43"/>
</svg>
