<svg width="21" height="12" viewBox="0 0 21 12" fill="none" xmlns="http://www.w3.org/2000/svg">
<path d="M19.9828 10.1856C19.9294 10.1013 19.5992 9.42497 18.0098 8.03484C16.3459 6.57919 16.5694 6.81556 18.5735 4.2986C19.7941 2.76572 20.2821 1.82961 20.1294 1.42942C19.9841 1.04796 19.0863 1.14859 19.0863 1.14859L16.1012 1.16497C16.1012 1.16497 15.8802 1.13689 15.7151 1.22933C15.5549 1.3206 15.4518 1.53122 15.4518 1.53122C15.4518 1.53122 14.9787 2.71774 14.3479 3.7264C13.0181 5.85488 12.4854 5.96721 12.2681 5.83499C11.7627 5.52724 11.8893 4.59698 11.8893 3.93703C11.8893 1.87407 12.2209 1.01402 11.2424 0.791698C10.9171 0.717979 10.6787 0.668833 9.84797 0.660643C8.78258 0.650111 7.87985 0.664153 7.36951 0.89935C7.02928 1.05615 6.76728 1.40602 6.92746 1.42591C7.12489 1.45049 7.57191 1.53942 7.80908 1.84365C8.11578 2.23565 8.1046 3.11793 8.1046 3.11793C8.1046 3.11793 8.28093 5.54596 7.6936 5.84786C7.29004 6.05497 6.73748 5.63255 5.55164 3.70066C4.94444 2.71189 4.48501 1.61781 4.48501 1.61781C4.48501 1.61781 4.39685 1.41421 4.23915 1.30539C4.04792 1.17316 3.77971 1.13104 3.77971 1.13104L0.941156 1.14742C0.941156 1.14742 0.515248 1.15912 0.358792 1.33347C0.21972 1.4891 0.347616 1.80972 0.347616 1.80972C0.347616 1.80972 2.57028 6.70908 5.086 9.17924C7.39434 11.4435 10.0144 11.2948 10.0144 11.2948H11.2014C11.2014 11.2948 11.5603 11.2574 11.7428 11.0713C11.9117 10.9005 11.9055 10.5799 11.9055 10.5799C11.9055 10.5799 11.8819 9.0786 12.622 8.85745C13.3508 8.6398 14.2871 10.3084 15.2792 10.9508C16.0292 11.4364 16.5992 11.3299 16.5992 11.3299L19.2527 11.2948C19.2527 11.2948 20.6409 11.2141 19.9828 10.1856Z" fill="white"/>
</svg>
