<svg width="9" height="15" viewBox="0 0 9 15" fill="none" xmlns="http://www.w3.org/2000/svg">
<path d="M8.47394 0.998911L6.47921 0.996094C4.2382 0.996094 2.78996 2.30409 2.78996 4.32856V5.86504H0.784355C0.611046 5.86504 0.470703 5.98873 0.470703 6.14129V8.36749C0.470703 8.52005 0.611206 8.6436 0.784355 8.6436H2.78996V14.261C2.78996 14.4136 2.93031 14.5371 3.10362 14.5371H5.72037C5.89367 14.5371 6.03402 14.4134 6.03402 14.261V8.6436H8.37904C8.55235 8.6436 8.69269 8.52005 8.69269 8.36749L8.69365 6.14129C8.69365 6.06804 8.66053 5.99789 8.6018 5.94605C8.54307 5.8942 8.46306 5.86504 8.37984 5.86504H6.03402V4.56254C6.03402 3.93651 6.20349 3.6187 7.12988 3.6187L8.47362 3.61828C8.64677 3.61828 8.78711 3.4946 8.78711 3.34217V1.27502C8.78711 1.12274 8.64693 0.999193 8.47394 0.998911Z" fill="white"/>
</svg>
